# Blender 4.4.1
# www.blender.org
mtllib player.mtl
o 円柱
v 0.745122 0.064769 -0.802443
v -0.711981 1.287423 -0.184409
v 0.736026 0.054574 -0.803722
v -0.721078 1.277229 -0.185688
v 0.726642 0.045306 -0.807511
v -0.730462 1.267961 -0.189477
v 0.717332 0.037321 -0.813663
v -0.739772 1.259975 -0.195629
v 0.708453 0.030924 -0.821942
v -0.748651 1.253578 -0.203908
v 0.700346 0.026362 -0.832031
v -0.756758 1.249016 -0.213996
v 0.693323 0.023811 -0.843540
v -0.763781 1.246465 -0.225506
v 0.687654 0.023368 -0.856029
v -0.769450 1.246022 -0.237995
v 0.683557 0.025050 -0.869017
v -0.773547 1.247704 -0.250983
v 0.681189 0.028793 -0.882005
v -0.775915 1.251447 -0.263971
v 0.680641 0.034453 -0.894494
v -0.776463 1.257107 -0.276460
v 0.681934 0.041812 -0.906003
v -0.775170 1.264466 -0.287969
v 0.685018 0.050587 -0.916092
v -0.772085 1.273242 -0.298058
v 0.689776 0.060443 -0.924371
v -0.767328 1.283097 -0.306337
v 0.696024 0.070998 -0.930523
v -0.761080 1.293652 -0.312489
v 0.703522 0.081849 -0.934312
v -0.753582 1.304503 -0.316278
v 0.711981 0.092577 -0.935591
v -0.745122 1.315231 -0.317557
v 0.721078 0.102771 -0.934312
v -0.736026 1.325426 -0.316278
v 0.730462 0.112040 -0.930523
v -0.726642 1.334694 -0.312489
v 0.739772 0.120025 -0.924371
v -0.717332 1.342680 -0.306337
v 0.748651 0.126422 -0.916092
v -0.708453 1.349076 -0.298058
v 0.756758 0.130984 -0.906003
v -0.700346 1.353638 -0.287969
v 0.763781 0.133535 -0.894494
v -0.693323 1.356189 -0.276460
v 0.769450 0.133978 -0.882005
v -0.687654 1.356632 -0.263971
v 0.773547 0.132296 -0.869017
v -0.683557 1.354950 -0.250983
v 0.775915 0.128553 -0.856029
v -0.681189 1.351207 -0.237995
v 0.776463 0.122893 -0.843540
v -0.680641 1.345547 -0.225506
v 0.775170 0.115534 -0.832031
v -0.681934 1.338188 -0.213996
v 0.772085 0.106758 -0.821942
v -0.685018 1.329412 -0.203908
v 0.767328 0.096903 -0.813663
v -0.689776 1.319557 -0.195629
v 0.761080 0.086348 -0.807511
v -0.696024 1.309002 -0.189477
v 0.753582 0.075497 -0.803722
v -0.703522 1.298151 -0.185688
v 0.000000 2.415176 0.444456
v 0.000000 2.194456 0.665176
v 0.000000 1.906072 0.784628
v 0.000000 1.750000 0.800000
v 0.000000 1.593928 0.784628
v 0.000000 1.305544 0.665176
v -0.030448 2.534628 0.153073
v -0.059726 2.489104 0.300264
v -0.086709 2.415176 0.435916
v -0.110360 2.315686 0.554816
v -0.129769 2.194456 0.652394
v -0.144192 2.056147 0.724902
v -0.153073 1.906072 0.769552
v -0.156072 1.750000 0.784628
v -0.153073 1.593928 0.769552
v -0.144192 1.443853 0.724902
v -0.129769 1.305544 0.652394
v -0.110360 1.184314 0.554816
v -0.086709 1.084824 0.435916
v -0.059726 1.010896 0.300264
v -0.030448 0.965372 0.153073
v -0.059726 2.534628 0.144192
v -0.117157 2.489104 0.282843
v -0.170086 2.415176 0.410624
v -0.216478 2.315686 0.522625
v -0.254552 2.194456 0.614542
v -0.282843 2.056147 0.682843
v -0.300264 1.906072 0.724902
v -0.306147 1.750000 0.739104
v -0.300264 1.593928 0.724902
v -0.282843 1.443853 0.682843
v -0.254552 1.305544 0.614542
v -0.216478 1.184314 0.522625
v -0.170086 1.084824 0.410624
v -0.117157 1.010896 0.282843
v -0.059726 0.965372 0.144192
v -0.086709 2.534628 0.129769
v -0.170086 2.489104 0.254552
v -0.246927 2.415176 0.369552
v -0.314278 2.315686 0.470350
v -0.369552 2.194456 0.553073
v -0.410624 2.056147 0.614542
v -0.435916 1.906072 0.652394
v -0.444456 1.750000 0.665176
v -0.435916 1.593928 0.652394
v -0.410624 1.443853 0.614542
v -0.369552 1.305544 0.553073
v -0.314278 1.184314 0.470350
v -0.246927 1.084824 0.369552
v -0.170086 1.010896 0.254552
v -0.086709 0.965372 0.129769
v -0.110360 2.534628 0.110360
v -0.216478 2.489104 0.216478
v -0.314278 2.415176 0.314278
v -0.400000 2.315686 0.400000
v -0.470350 2.194456 0.470350
v -0.522625 2.056147 0.522625
v -0.554816 1.906072 0.554816
v -0.565685 1.750000 0.565685
v -0.554816 1.593928 0.554816
v -0.522625 1.443853 0.522625
v -0.470350 1.305544 0.470350
v -0.400000 1.184314 0.400000
v -0.314278 1.084824 0.314278
v -0.216478 1.010896 0.216478
v -0.110360 0.965372 0.110360
v -0.129769 2.534628 0.086709
v -0.254552 2.489104 0.170086
v -0.369552 2.415176 0.246927
v -0.470350 2.315686 0.314278
v -0.553073 2.194456 0.369552
v -0.614542 2.056147 0.410624
v -0.652394 1.906072 0.435916
v -0.665176 1.750000 0.444456
v -0.652394 1.593928 0.435916
v -0.614542 1.443853 0.410624
v -0.553073 1.305544 0.369552
v -0.470350 1.184314 0.314278
v -0.369552 1.084824 0.246927
v -0.254552 1.010896 0.170086
v -0.129769 0.965372 0.086709
v 0.000000 2.550000 0.000000
v -0.144192 2.534628 0.059726
v -0.282843 2.489104 0.117157
v -0.410624 2.415176 0.170086
v -0.522625 2.315686 0.216478
v -0.614542 2.194456 0.254552
v -0.682843 2.056147 0.282843
v -0.724902 1.906072 0.300264
v -0.739103 1.750000 0.306147
v -0.724902 1.593928 0.300264
v -0.682843 1.443853 0.282843
v -0.614542 1.305544 0.254552
v -0.522625 1.184314 0.216478
v -0.410624 1.084824 0.170086
v -0.282843 1.010896 0.117157
v -0.144192 0.965372 0.059726
v -0.153073 2.534628 0.030448
v -0.300264 2.489104 0.059726
v -0.435916 2.415176 0.086709
v -0.554816 2.315686 0.110360
v -0.652394 2.194456 0.129769
v -0.724902 2.056147 0.144192
v -0.769552 1.906072 0.153073
v -0.784628 1.750000 0.156072
v -0.769552 1.593928 0.153073
v -0.724902 1.443853 0.144192
v -0.652394 1.305544 0.129769
v -0.554816 1.184314 0.110360
v -0.435916 1.084824 0.086709
v -0.300264 1.010896 0.059726
v -0.153073 0.965372 0.030448
v -0.156072 2.534628 -0.000000
v -0.306147 2.489104 -0.000000
v -0.444456 2.415176 -0.000000
v -0.565685 2.315686 0.000000
v -0.665176 2.194456 -0.000000
v -0.739104 2.056147 0.000000
v -0.784628 1.906072 -0.000000
v -0.800000 1.750000 -0.000000
v -0.784628 1.593928 -0.000000
v -0.739104 1.443853 0.000000
v -0.665176 1.305544 -0.000000
v -0.565685 1.184314 0.000000
v -0.444456 1.084824 -0.000000
v -0.306147 1.010896 -0.000000
v -0.156072 0.965372 -0.000000
v -0.153073 2.534628 -0.030448
v -0.300264 2.489104 -0.059726
v -0.435916 2.415176 -0.086709
v -0.554816 2.315686 -0.110360
v -0.652394 2.194456 -0.129769
v -0.724902 2.056147 -0.144192
v -0.769552 1.906072 -0.153073
v -0.784628 1.750000 -0.156072
v -0.769552 1.593928 -0.153073
v -0.724902 1.443853 -0.144192
v -0.652394 1.305544 -0.129769
v -0.554816 1.184314 -0.110360
v -0.435916 1.084824 -0.086709
v -0.300264 1.010896 -0.059726
v -0.153073 0.965372 -0.030448
v -0.144192 2.534628 -0.059726
v -0.282843 2.489104 -0.117157
v -0.410624 2.415176 -0.170086
v -0.522625 2.315686 -0.216478
v -0.614542 2.194456 -0.254552
v -0.682843 2.056147 -0.282843
v -0.724902 1.906072 -0.300264
v -0.739103 1.750000 -0.306147
v -0.724902 1.593928 -0.300264
v -0.682843 1.443853 -0.282843
v -0.614542 1.305544 -0.254552
v -0.522625 1.184314 -0.216478
v -0.410624 1.084824 -0.170086
v -0.282843 1.010896 -0.117157
v -0.144192 0.965372 -0.059726
v -0.129769 2.534628 -0.086709
v -0.254552 2.489104 -0.170086
v -0.369552 2.415176 -0.246927
v -0.470350 2.315686 -0.314278
v -0.553073 2.194456 -0.369552
v -0.614542 2.056147 -0.410624
v -0.652394 1.906072 -0.435916
v -0.665175 1.750000 -0.444456
v -0.652394 1.593928 -0.435916
v -0.614542 1.443853 -0.410624
v -0.553073 1.305544 -0.369552
v -0.470350 1.184314 -0.314278
v -0.369552 1.084824 -0.246927
v -0.254552 1.010896 -0.170086
v -0.129769 0.965372 -0.086709
v -0.110360 2.534628 -0.110360
v -0.216478 2.489104 -0.216478
v -0.314278 2.415176 -0.314278
v -0.400000 2.315686 -0.400000
v -0.470350 2.194456 -0.470350
v -0.522625 2.056147 -0.522625
v -0.554816 1.906072 -0.554816
v -0.565685 1.750000 -0.565685
v -0.554816 1.593928 -0.554816
v -0.522625 1.443853 -0.522625
v -0.470350 1.305544 -0.470350
v -0.400000 1.184314 -0.400000
v -0.314278 1.084824 -0.314278
v -0.216478 1.010896 -0.216478
v -0.110360 0.965372 -0.110360
v -0.086709 2.534628 -0.129769
v -0.170086 2.489104 -0.254552
v -0.246926 2.415176 -0.369552
v -0.314278 2.315686 -0.470350
v -0.369552 2.194456 -0.553073
v -0.410624 2.056147 -0.614542
v -0.435916 1.906072 -0.652394
v -0.444456 1.750000 -0.665175
v -0.435916 1.593928 -0.652394
v -0.410624 1.443853 -0.614542
v -0.369552 1.305544 -0.553073
v -0.314278 1.184314 -0.470350
v -0.246926 1.084824 -0.369552
v -0.170086 1.010896 -0.254552
v -0.086709 0.965372 -0.129769
v -0.059726 2.534628 -0.144192
v -0.117157 2.489104 -0.282843
v -0.170086 2.415176 -0.410624
v -0.216478 2.315686 -0.522625
v -0.254552 2.194456 -0.614542
v -0.282843 2.056147 -0.682843
v -0.300264 1.906072 -0.724902
v -0.306146 1.750000 -0.739103
v -0.300264 1.593928 -0.724902
v -0.282843 1.443853 -0.682843
v -0.254552 1.305544 -0.614542
v -0.216478 1.184314 -0.522625
v -0.170086 1.084824 -0.410624
v -0.117157 1.010896 -0.282843
v -0.059726 0.965372 -0.144192
v -0.030448 2.534628 -0.153073
v -0.059726 2.489104 -0.300264
v -0.086709 2.415176 -0.435916
v -0.110360 2.315686 -0.554816
v -0.129769 2.194456 -0.652394
v -0.144192 2.056147 -0.724902
v -0.153073 1.906072 -0.769552
v -0.156072 1.750000 -0.784628
v -0.153073 1.593928 -0.769552
v -0.144192 1.443853 -0.724902
v -0.129769 1.305544 -0.652394
v -0.110360 1.184314 -0.554816
v -0.086709 1.084824 -0.435916
v -0.059726 1.010896 -0.300264
v -0.030448 0.965372 -0.153073
v 0.000000 2.534628 -0.156072
v 0.000000 2.489104 -0.306147
v 0.000000 2.415176 -0.444456
v 0.000000 2.315686 -0.565685
v 0.000000 2.194456 -0.665175
v -0.000000 2.056147 -0.739103
v 0.000000 1.906072 -0.784628
v 0.000000 1.750000 -0.799999
v 0.000000 1.593928 -0.784628
v -0.000000 1.443853 -0.739103
v 0.000000 1.305544 -0.665175
v 0.000000 1.184314 -0.565685
v 0.000000 1.084824 -0.444456
v 0.000000 1.010896 -0.306147
v 0.000000 0.965372 -0.156072
v 0.030448 2.534628 -0.153073
v 0.059726 2.489104 -0.300264
v 0.086709 2.415176 -0.435916
v 0.110360 2.315686 -0.554816
v 0.129769 2.194456 -0.652394
v 0.144192 2.056147 -0.724902
v 0.153073 1.906072 -0.769552
v 0.156072 1.750000 -0.784628
v 0.153073 1.593928 -0.769552
v 0.144192 1.443853 -0.724902
v 0.129769 1.305544 -0.652394
v 0.110360 1.184314 -0.554816
v 0.086709 1.084824 -0.435916
v 0.059726 1.010896 -0.300264
v 0.030448 0.965372 -0.153073
v 0.059726 2.534628 -0.144192
v 0.117157 2.489104 -0.282843
v 0.170086 2.415176 -0.410624
v 0.216478 2.315686 -0.522625
v 0.254552 2.194456 -0.614542
v 0.282843 2.056147 -0.682842
v 0.300264 1.906072 -0.724902
v 0.306147 1.750000 -0.739103
v 0.300264 1.593928 -0.724902
v 0.282843 1.443853 -0.682842
v 0.254552 1.305544 -0.614542
v 0.216478 1.184314 -0.522625
v 0.170086 1.084824 -0.410624
v 0.117157 1.010896 -0.282843
v 0.059726 0.965372 -0.144192
v 0.086709 2.534628 -0.129769
v 0.170086 2.489104 -0.254552
v 0.246927 2.415176 -0.369552
v 0.314278 2.315686 -0.470350
v 0.369552 2.194456 -0.553073
v 0.410624 2.056147 -0.614542
v 0.435916 1.906072 -0.652394
v 0.444456 1.750000 -0.665175
v 0.435916 1.593928 -0.652394
v 0.410624 1.443853 -0.614542
v 0.369552 1.305544 -0.553073
v 0.314278 1.184314 -0.470350
v 0.246927 1.084824 -0.369552
v 0.170086 1.010896 -0.254552
v 0.086709 0.965372 -0.129769
v 0.110360 2.534628 -0.110360
v 0.216478 2.489104 -0.216478
v 0.314278 2.415176 -0.314278
v 0.400000 2.315686 -0.400000
v 0.470350 2.194456 -0.470350
v 0.522625 2.056147 -0.522625
v 0.554816 1.906072 -0.554816
v 0.565685 1.750000 -0.565685
v 0.554816 1.593928 -0.554816
v 0.522625 1.443853 -0.522625
v 0.470350 1.305544 -0.470350
v 0.400000 1.184314 -0.400000
v 0.314278 1.084824 -0.314278
v 0.216478 1.010896 -0.216478
v 0.110360 0.965372 -0.110360
v 0.000000 0.950000 0.000000
v 0.129769 2.534628 -0.086709
v 0.254552 2.489104 -0.170086
v 0.369552 2.415176 -0.246926
v 0.470350 2.315686 -0.314278
v 0.553073 2.194456 -0.369552
v 0.614542 2.056147 -0.410624
v 0.652394 1.906072 -0.435916
v 0.665175 1.750000 -0.444456
v 0.652394 1.593928 -0.435916
v 0.614542 1.443853 -0.410624
v 0.553073 1.305544 -0.369552
v 0.470350 1.184314 -0.314278
v 0.369552 1.084824 -0.246926
v 0.254552 1.010896 -0.170086
v 0.129769 0.965372 -0.086709
v 0.144192 2.534628 -0.059726
v 0.282843 2.489104 -0.117157
v 0.410624 2.415176 -0.170086
v 0.522625 2.315686 -0.216478
v 0.614542 2.194456 -0.254551
v 0.682842 2.056147 -0.282843
v 0.724902 1.906072 -0.300264
v 0.739103 1.750000 -0.306146
v 0.724902 1.593928 -0.300264
v 0.682842 1.443853 -0.282843
v 0.614542 1.305544 -0.254551
v 0.522625 1.184314 -0.216478
v 0.410624 1.084824 -0.170086
v 0.282843 1.010896 -0.117157
v 0.144192 0.965372 -0.059726
v 0.153073 2.534628 -0.030448
v 0.300264 2.489104 -0.059726
v 0.435916 2.415176 -0.086709
v 0.554816 2.315686 -0.110360
v 0.652394 2.194456 -0.129769
v 0.724902 2.056147 -0.144192
v 0.769552 1.906072 -0.153073
v 0.784628 1.750000 -0.156072
v 0.769552 1.593928 -0.153073
v 0.724902 1.443853 -0.144192
v 0.652394 1.305544 -0.129769
v 0.554816 1.184314 -0.110360
v 0.435916 1.084824 -0.086709
v 0.300264 1.010896 -0.059726
v 0.153073 0.965372 -0.030448
v 0.156072 2.534628 0.000000
v 0.306147 2.489104 0.000000
v 0.444456 2.415176 0.000000
v 0.565685 2.315686 0.000000
v 0.665175 2.194456 0.000000
v 0.739103 2.056147 0.000000
v 0.784628 1.906072 0.000000
v 0.799999 1.750000 0.000000
v 0.784628 1.593928 0.000000
v 0.739103 1.443853 0.000000
v 0.665175 1.305544 0.000000
v 0.565685 1.184314 0.000000
v 0.444456 1.084824 0.000000
v 0.306147 1.010896 0.000000
v 0.156072 0.965372 0.000000
v 0.153073 2.534628 0.030448
v 0.300264 2.489104 0.059726
v 0.435916 2.415176 0.086709
v 0.554816 2.315686 0.110360
v 0.652394 2.194456 0.129769
v 0.724902 2.056147 0.144192
v 0.769551 1.906072 0.153074
v 0.784627 1.750000 0.156072
v 0.769551 1.593928 0.153074
v 0.724902 1.443853 0.144192
v 0.652394 1.305544 0.129769
v 0.554816 1.184314 0.110360
v 0.435916 1.084824 0.086709
v 0.300264 1.010896 0.059726
v 0.153073 0.965372 0.030448
v 0.144192 2.534628 0.059726
v 0.282843 2.489104 0.117157
v 0.410624 2.415176 0.170086
v 0.522625 2.315686 0.216478
v 0.614542 2.194456 0.254552
v 0.682842 2.056147 0.282843
v 0.724901 1.906072 0.300264
v 0.739103 1.750000 0.306147
v 0.724901 1.593928 0.300264
v 0.682842 1.443853 0.282843
v 0.614542 1.305544 0.254552
v 0.522625 1.184314 0.216478
v 0.410624 1.084824 0.170086
v 0.282843 1.010896 0.117157
v 0.144192 0.965372 0.059726
v 0.129769 2.534628 0.086709
v 0.254552 2.489104 0.170086
v 0.369551 2.415176 0.246927
v 0.470350 2.315686 0.314278
v 0.553073 2.194456 0.369552
v 0.614542 2.056147 0.410624
v 0.652394 1.906072 0.435916
v 0.665175 1.750000 0.444456
v 0.652394 1.593928 0.435916
v 0.614542 1.443853 0.410624
v 0.553073 1.305544 0.369552
v 0.470350 1.184314 0.314278
v 0.369551 1.084824 0.246927
v 0.254552 1.010896 0.170086
v 0.129769 0.965372 0.086709
v 0.110360 2.534628 0.110360
v 0.216478 2.489104 0.216478
v 0.314278 2.415176 0.314278
v 0.400000 2.315686 0.400000
v 0.470350 2.194456 0.470350
v 0.522625 2.056147 0.522625
v 0.554815 1.906072 0.554816
v 0.565685 1.750000 0.565685
v 0.554815 1.593928 0.554816
v 0.522625 1.443853 0.522625
v 0.470350 1.305544 0.470350
v 0.400000 1.184314 0.400000
v 0.314278 1.084824 0.314278
v 0.216478 1.010896 0.216478
v 0.110360 0.965372 0.110360
v 0.086709 2.534628 0.129769
v 0.170086 2.489104 0.254552
v 0.246926 2.415176 0.369552
v 0.314278 2.315686 0.470350
v 0.369551 2.194456 0.553073
v 0.410624 2.056147 0.614542
v 0.435916 1.906072 0.652394
v 0.444455 1.750000 0.665175
v 0.435916 1.593928 0.652394
v 0.410624 1.443853 0.614542
v 0.369551 1.305544 0.553073
v 0.314278 1.184314 0.470350
v 0.246926 1.084824 0.369552
v 0.170086 1.010896 0.254552
v 0.086709 0.965372 0.129769
v 0.059726 2.534628 0.144192
v 0.117157 2.489104 0.282843
v 0.170086 2.415176 0.410624
v 0.216478 2.315686 0.522625
v 0.254551 2.194456 0.614542
v 0.282843 2.056147 0.682842
v 0.300264 1.906072 0.724902
v 0.306146 1.750000 0.739103
v 0.300264 1.593928 0.724902
v 0.282843 1.443853 0.682842
v 0.254551 1.305544 0.614542
v 0.216478 1.184314 0.522625
v 0.170086 1.084824 0.410624
v 0.117157 1.010896 0.282843
v 0.059726 0.965372 0.144192
v 0.030448 2.534628 0.153073
v 0.059726 2.489104 0.300264
v 0.086709 2.415176 0.435916
v 0.110360 2.315686 0.554816
v 0.129769 2.194456 0.652394
v 0.144192 2.056147 0.724902
v 0.153073 1.906072 0.769551
v 0.156072 1.750000 0.784627
v 0.153073 1.593928 0.769551
v 0.144192 1.443853 0.724902
v 0.129769 1.305544 0.652394
v 0.110360 1.184314 0.554816
v 0.086709 1.084824 0.435916
v 0.059726 1.010896 0.300264
v 0.030448 0.965372 0.153073
v -0.000000 2.534628 0.156072
v -0.000000 2.489104 0.306147
v -0.000000 2.315686 0.565685
v -0.000000 2.056147 0.739103
v -0.000000 1.443853 0.739103
v -0.000000 1.184314 0.565685
v -0.000000 1.084824 0.444456
v -0.000000 1.010896 0.306147
v -0.000000 0.965372 0.156072
v 0.000000 0.000000 0.750000
v -0.146318 0.000000 0.735589
v 0.000000 2.000000 0.000000
v 0.146318 0.000000 0.735589
v 0.287013 0.000000 0.692910
v 0.416678 0.000000 0.623602
v 0.530330 0.000000 0.530330
v 0.623602 0.000000 0.416678
v 0.692910 0.000000 0.287013
v 0.735589 0.000000 0.146318
v 0.750000 0.000000 0.000000
v 0.735589 0.000000 -0.146318
v 0.692910 0.000000 -0.287013
v 0.623602 0.000000 -0.416678
v 0.530330 0.000000 -0.530330
v 0.416678 0.000000 -0.623602
v 0.287013 0.000000 -0.692910
v 0.146318 0.000000 -0.735589
v 0.000000 0.000000 -0.750000
v -0.146318 0.000000 -0.735589
v -0.287013 0.000000 -0.692910
v -0.416678 0.000000 -0.623602
v -0.530330 0.000000 -0.530330
v -0.623602 0.000000 -0.416678
v -0.692910 0.000000 -0.287013
v -0.735589 0.000000 -0.146318
v -0.750000 0.000000 0.000000
v -0.735589 0.000000 0.146318
v -0.692910 0.000000 0.287013
v -0.623602 0.000000 0.416678
v -0.530330 0.000000 0.530330
v -0.416678 0.000000 0.623602
v -0.287013 0.000000 0.692910
v 0.000000 2.400000 1.000000
v -0.195090 2.400000 0.980785
v -0.382683 2.400000 0.923880
v -0.555570 2.400000 0.831470
v -0.707107 2.400000 0.707107
v -0.831470 2.400000 0.555570
v -0.923880 2.400000 0.382683
v -0.980785 2.400000 0.195090
v -1.000000 2.400000 0.000000
v -0.980785 2.400000 -0.195090
v -0.923880 2.400000 -0.382683
v -0.831470 2.400000 -0.555570
v -0.707107 2.400000 -0.707107
v -0.555570 2.400000 -0.831470
v -0.382683 2.400000 -0.923880
v -0.195090 2.400000 -0.980785
v 0.000000 2.400000 -1.000000
v 0.195090 2.400000 -0.980785
v 0.382683 2.400000 -0.923880
v 0.555570 2.400000 -0.831470
v 0.707107 2.400000 -0.707107
v 0.831470 2.400000 -0.555570
v 0.923880 2.400000 -0.382683
v 0.980785 2.400000 -0.195090
v 1.000000 2.400000 0.000000
v 0.980785 2.400000 0.195090
v 0.923880 2.400000 0.382683
v 0.831470 2.400000 0.555570
v 0.707107 2.400000 0.707107
v 0.555570 2.400000 0.831470
v 0.382683 2.400000 0.923880
v 0.195090 2.400000 0.980785
v 0.000000 2.800000 0.000000
vn 0.1726 -0.2728 0.9465
vn 0.0399 -0.4124 0.9101
vn -0.0942 -0.5363 0.8388
vn -0.2248 -0.6395 0.7352
vn -0.3467 -0.7182 0.6033
vn -0.4553 -0.7692 0.4483
vn -0.5464 -0.7907 0.2761
vn -0.6165 -0.7818 0.0932
vn -0.6629 -0.7429 -0.0932
vn -0.6838 -0.6754 -0.2761
vn -0.6785 -0.5820 -0.4483
vn -0.6471 -0.4662 -0.6033
vn -0.5908 -0.3324 -0.7352
vn -0.5118 -0.1859 -0.8388
vn -0.4131 -0.0323 -0.9101
vn -0.2986 0.1226 -0.9465
vn -0.1726 0.2728 -0.9465
vn -0.0399 0.4124 -0.9101
vn 0.0942 0.5363 -0.8388
vn 0.2248 0.6395 -0.7352
vn 0.3467 0.7182 -0.6033
vn 0.4553 0.7692 -0.4483
vn 0.5464 0.7907 -0.2761
vn 0.6165 0.7818 -0.0932
vn 0.6629 0.7429 0.0932
vn 0.6838 0.6754 0.2761
vn 0.6785 0.5820 0.4483
vn 0.6471 0.4662 0.6033
vn 0.5908 0.3324 0.7352
vn 0.5118 0.1859 0.8388
vn -0.7286 0.6113 0.3090
vn 0.4131 0.0323 0.9101
vn 0.2986 -0.1226 0.9465
vn 0.7286 -0.6113 -0.3090
vn -0.0097 -0.9951 0.0980
vn -0.0976 -0.0975 0.9904
vn -0.0286 0.9565 0.2902
vn -0.0938 -0.2890 0.9527
vn -0.0464 0.8810 0.4709
vn -0.0865 -0.4696 0.8786
vn -0.0624 0.7715 0.6332
vn -0.0759 -0.6326 0.7708
vn -0.0759 0.6326 0.7708
vn -0.0624 -0.7715 0.6332
vn -0.0865 0.4696 0.8786
vn -0.0464 -0.8810 0.4709
vn -0.0938 0.2890 0.9527
vn -0.0286 -0.9565 0.2902
vn -0.0975 0.0976 0.9904
vn -0.0097 0.9951 0.0980
vn -0.0846 -0.9565 0.2790
vn -0.2889 0.0976 0.9524
vn -0.0286 0.9951 0.0942
vn -0.0286 -0.9951 0.0942
vn -0.2889 -0.0975 0.9524
vn -0.0846 0.9565 0.2790
vn -0.2779 -0.2890 0.9161
vn -0.1374 0.8810 0.4528
vn -0.2563 -0.4696 0.8448
vn -0.1847 0.7715 0.6088
vn -0.2248 -0.6326 0.7412
vn -0.2248 0.6326 0.7412
vn -0.1847 -0.7715 0.6088
vn -0.2563 0.4696 0.8448
vn -0.1374 -0.8810 0.4528
vn -0.2779 0.2890 0.9161
vn -0.2999 0.7715 0.5611
vn -0.3651 -0.6326 0.6831
vn -0.3651 0.6326 0.6831
vn -0.2999 -0.7715 0.5611
vn -0.4162 0.4696 0.7786
vn -0.2230 -0.8810 0.4173
vn -0.4513 0.2890 0.8443
vn -0.1374 -0.9565 0.2571
vn -0.4691 0.0975 0.8777
vn -0.0464 0.9951 0.0869
vn -0.0464 -0.9951 0.0869
vn -0.4691 -0.0975 0.8777
vn -0.1374 0.9565 0.2571
vn -0.4513 -0.2890 0.8443
vn -0.2230 0.8810 0.4173
vn -0.4162 -0.4696 0.7786
vn -0.6314 0.0975 0.7693
vn -0.0625 0.9951 0.0761
vn -0.0625 -0.9951 0.0761
vn -0.6314 -0.0976 0.7693
vn -0.1850 0.9565 0.2254
vn -0.6073 -0.2890 0.7400
vn -0.3002 0.8810 0.3658
vn -0.5601 -0.4696 0.6825
vn -0.4036 0.7715 0.4918
vn -0.4913 -0.6326 0.5987
vn -0.4913 0.6326 0.5987
vn -0.4036 -0.7715 0.4918
vn -0.5601 0.4696 0.6825
vn -0.3002 -0.8810 0.3658
vn -0.6073 0.2890 0.7400
vn -0.1850 -0.9565 0.2254
vn -0.5987 -0.6326 0.4913
vn -0.5987 0.6326 0.4913
vn -0.4918 -0.7715 0.4036
vn -0.6825 0.4696 0.5601
vn -0.3658 -0.8810 0.3002
vn -0.7400 0.2890 0.6073
vn -0.2254 -0.9565 0.1850
vn -0.7693 0.0975 0.6314
vn -0.0761 0.9951 0.0625
vn -0.0761 -0.9951 0.0625
vn -0.7693 -0.0975 0.6314
vn -0.2254 0.9565 0.1850
vn -0.7400 -0.2890 0.6073
vn -0.3658 0.8810 0.3002
vn -0.6825 -0.4696 0.5601
vn -0.4918 0.7715 0.4036
vn -0.0869 -0.9951 0.0464
vn -0.8777 -0.0975 0.4691
vn -0.2571 0.9565 0.1374
vn -0.8443 -0.2890 0.4513
vn -0.4173 0.8810 0.2230
vn -0.7786 -0.4696 0.4162
vn -0.5611 0.7715 0.2999
vn -0.6831 -0.6326 0.3651
vn -0.6831 0.6326 0.3651
vn -0.5611 -0.7715 0.2999
vn -0.7786 0.4696 0.4162
vn -0.4173 -0.8810 0.2230
vn -0.8443 0.2890 0.4513
vn -0.2571 -0.9565 0.1374
vn -0.8777 0.0975 0.4691
vn -0.0869 0.9951 0.0464
vn -0.6088 -0.7715 0.1847
vn -0.8448 0.4696 0.2563
vn -0.4528 -0.8810 0.1374
vn -0.9161 0.2890 0.2779
vn -0.2790 -0.9565 0.0846
vn -0.9524 0.0975 0.2889
vn -0.0942 0.9951 0.0286
vn -0.0942 -0.9951 0.0286
vn -0.9524 -0.0975 0.2889
vn -0.2790 0.9566 0.0846
vn -0.9161 -0.2890 0.2779
vn -0.4528 0.8810 0.1374
vn -0.8448 -0.4696 0.2563
vn -0.6088 0.7715 0.1847
vn -0.7412 -0.6326 0.2248
vn -0.7412 0.6326 0.2248
vn -0.2902 0.9565 0.0286
vn -0.9527 -0.2890 0.0938
vn -0.4709 0.8810 0.0464
vn -0.8786 -0.4696 0.0865
vn -0.6332 0.7715 0.0624
vn -0.7708 -0.6326 0.0759
vn -0.7708 0.6326 0.0759
vn -0.6332 -0.7715 0.0624
vn -0.8786 0.4696 0.0865
vn -0.4709 -0.8810 0.0464
vn -0.9527 0.2890 0.0938
vn -0.2902 -0.9565 0.0286
vn -0.9904 0.0975 0.0975
vn -0.0980 0.9951 0.0097
vn -0.0980 -0.9951 0.0097
vn -0.9904 -0.0975 0.0975
vn -0.8786 0.4696 -0.0865
vn -0.4709 -0.8810 -0.0464
vn -0.9527 0.2890 -0.0938
vn -0.2902 -0.9565 -0.0286
vn -0.9904 0.0975 -0.0975
vn -0.0980 0.9951 -0.0097
vn -0.0980 -0.9951 -0.0097
vn -0.9904 -0.0975 -0.0975
vn -0.2902 0.9565 -0.0286
vn -0.9527 -0.2890 -0.0938
vn -0.4709 0.8810 -0.0464
vn -0.8786 -0.4696 -0.0865
vn -0.6332 0.7715 -0.0624
vn -0.7708 -0.6326 -0.0759
vn -0.7708 0.6326 -0.0759
vn -0.6332 -0.7715 -0.0624
vn -0.9161 -0.2890 -0.2779
vn -0.4528 0.8810 -0.1374
vn -0.8448 -0.4696 -0.2563
vn -0.6088 0.7715 -0.1847
vn -0.7412 -0.6326 -0.2248
vn -0.7412 0.6326 -0.2248
vn -0.6088 -0.7715 -0.1847
vn -0.8448 0.4696 -0.2563
vn -0.4528 -0.8810 -0.1374
vn -0.9161 0.2890 -0.2779
vn -0.2790 -0.9565 -0.0846
vn -0.9524 0.0975 -0.2889
vn -0.0942 0.9951 -0.0286
vn -0.0942 -0.9951 -0.0286
vn -0.9524 -0.0975 -0.2889
vn -0.2790 0.9565 -0.0846
vn -0.4173 -0.8810 -0.2231
vn -0.8443 0.2890 -0.4513
vn -0.2571 -0.9565 -0.1374
vn -0.8777 0.0975 -0.4691
vn -0.0869 0.9951 -0.0464
vn -0.0869 -0.9951 -0.0464
vn -0.8777 -0.0975 -0.4691
vn -0.2571 0.9565 -0.1374
vn -0.8443 -0.2890 -0.4513
vn -0.4173 0.8810 -0.2231
vn -0.7786 -0.4696 -0.4162
vn -0.5611 0.7715 -0.2999
vn -0.6831 -0.6326 -0.3651
vn -0.6831 0.6326 -0.3651
vn -0.5611 -0.7715 -0.2999
vn -0.7786 0.4696 -0.4162
vn -0.3658 0.8810 -0.3002
vn -0.6825 -0.4696 -0.5601
vn -0.4918 0.7715 -0.4036
vn -0.5987 -0.6326 -0.4913
vn -0.5987 0.6326 -0.4913
vn -0.4918 -0.7715 -0.4036
vn -0.6825 0.4696 -0.5601
vn -0.3658 -0.8810 -0.3002
vn -0.7400 0.2890 -0.6073
vn -0.2254 -0.9565 -0.1850
vn -0.7693 0.0975 -0.6314
vn -0.0761 0.9951 -0.0625
vn -0.0761 -0.9951 -0.0625
vn -0.7693 -0.0975 -0.6314
vn -0.2254 0.9565 -0.1850
vn -0.7400 -0.2890 -0.6073
vn -0.6073 0.2890 -0.7400
vn -0.1850 -0.9565 -0.2254
vn -0.6314 0.0975 -0.7693
vn -0.0625 0.9951 -0.0761
vn -0.0625 -0.9951 -0.0761
vn -0.6314 -0.0975 -0.7693
vn -0.1850 0.9565 -0.2254
vn -0.6073 -0.2890 -0.7400
vn -0.3002 0.8810 -0.3658
vn -0.5601 -0.4696 -0.6825
vn -0.4036 0.7715 -0.4918
vn -0.4913 -0.6326 -0.5987
vn -0.4913 0.6326 -0.5987
vn -0.4036 -0.7715 -0.4918
vn -0.5601 0.4696 -0.6825
vn -0.3002 -0.8810 -0.3658
vn -0.4162 -0.4696 -0.7786
vn -0.2999 0.7715 -0.5611
vn -0.3651 -0.6326 -0.6831
vn -0.3651 0.6326 -0.6831
vn -0.2999 -0.7715 -0.5611
vn -0.4162 0.4696 -0.7786
vn -0.2230 -0.8810 -0.4173
vn -0.4513 0.2890 -0.8443
vn -0.1374 -0.9565 -0.2571
vn -0.4691 0.0975 -0.8777
vn -0.0464 0.9951 -0.0869
vn -0.0464 -0.9951 -0.0869
vn -0.4691 -0.0975 -0.8777
vn -0.1374 0.9565 -0.2571
vn -0.4513 -0.2890 -0.8443
vn -0.2230 0.8810 -0.4173
vn -0.0846 -0.9565 -0.2790
vn -0.2889 0.0975 -0.9524
vn -0.0286 0.9951 -0.0942
vn -0.0286 -0.9951 -0.0942
vn -0.2889 -0.0975 -0.9524
vn -0.0846 0.9565 -0.2790
vn -0.2779 -0.2890 -0.9161
vn -0.1374 0.8810 -0.4528
vn -0.2563 -0.4696 -0.8448
vn -0.1847 0.7715 -0.6088
vn -0.2248 -0.6326 -0.7412
vn -0.2248 0.6326 -0.7412
vn -0.1847 -0.7715 -0.6088
vn -0.2563 0.4696 -0.8448
vn -0.1374 -0.8810 -0.4528
vn -0.2779 0.2890 -0.9161
vn -0.0759 -0.6326 -0.7708
vn -0.0759 0.6326 -0.7708
vn -0.0624 -0.7715 -0.6332
vn -0.0865 0.4696 -0.8786
vn -0.0464 -0.8810 -0.4709
vn -0.0938 0.2890 -0.9527
vn -0.0286 -0.9565 -0.2902
vn -0.0975 0.0975 -0.9904
vn -0.0096 0.9951 -0.0980
vn -0.0097 -0.9951 -0.0980
vn -0.0975 -0.0975 -0.9904
vn -0.0286 0.9565 -0.2902
vn -0.0938 -0.2890 -0.9527
vn -0.0464 0.8810 -0.4709
vn -0.0865 -0.4696 -0.8786
vn -0.0624 0.7715 -0.6332
vn 0.0096 0.9951 -0.0980
vn 0.0097 -0.9951 -0.0980
vn 0.0976 -0.0975 -0.9904
vn 0.0286 0.9565 -0.2902
vn 0.0938 -0.2890 -0.9527
vn 0.0464 0.8810 -0.4709
vn 0.0865 -0.4696 -0.8786
vn 0.0624 0.7715 -0.6332
vn 0.0759 -0.6326 -0.7708
vn 0.0759 0.6326 -0.7708
vn 0.0624 -0.7715 -0.6332
vn 0.0865 0.4696 -0.8786
vn 0.0464 -0.8810 -0.4709
vn 0.0938 0.2890 -0.9527
vn 0.0286 -0.9565 -0.2902
vn 0.0976 0.0975 -0.9904
vn 0.2248 0.6326 -0.7412
vn 0.1847 -0.7715 -0.6088
vn 0.2563 0.4696 -0.8448
vn 0.1374 -0.8810 -0.4528
vn 0.2779 0.2890 -0.9161
vn 0.0846 -0.9565 -0.2790
vn 0.2889 0.0975 -0.9524
vn 0.0286 0.9951 -0.0942
vn 0.0286 -0.9951 -0.0942
vn 0.2889 -0.0975 -0.9524
vn 0.0846 0.9565 -0.2790
vn 0.2779 -0.2890 -0.9161
vn 0.1374 0.8810 -0.4528
vn 0.2563 -0.4696 -0.8448
vn 0.1847 0.7715 -0.6088
vn 0.2248 -0.6326 -0.7412
vn 0.4691 -0.0975 -0.8777
vn 0.1374 0.9565 -0.2571
vn 0.4513 -0.2890 -0.8443
vn 0.2230 0.8810 -0.4173
vn 0.4162 -0.4696 -0.7786
vn 0.2999 0.7715 -0.5611
vn 0.3651 -0.6326 -0.6831
vn 0.3651 0.6326 -0.6831
vn 0.2999 -0.7715 -0.5611
vn 0.4162 0.4696 -0.7786
vn 0.2231 -0.8810 -0.4173
vn 0.4513 0.2890 -0.8443
vn 0.1374 -0.9565 -0.2571
vn 0.4691 0.0975 -0.8777
vn 0.0464 0.9951 -0.0869
vn 0.0464 -0.9951 -0.0869
vn 0.4036 -0.7715 -0.4918
vn 0.5601 0.4696 -0.6825
vn 0.3002 -0.8810 -0.3658
vn 0.6073 0.2890 -0.7400
vn 0.1850 -0.9566 -0.2254
vn 0.6314 0.0975 -0.7693
vn 0.0625 0.9951 -0.0761
vn 0.0625 -0.9951 -0.0761
vn 0.6314 -0.0975 -0.7693
vn 0.1850 0.9565 -0.2254
vn 0.6073 -0.2890 -0.7400
vn 0.3002 0.8810 -0.3658
vn 0.5601 -0.4696 -0.6825
vn 0.4036 0.7715 -0.4918
vn 0.4913 -0.6326 -0.5987
vn 0.4913 0.6326 -0.5987
vn 0.2254 0.9565 -0.1850
vn 0.7400 -0.2890 -0.6073
vn 0.3658 0.8810 -0.3002
vn 0.6825 -0.4696 -0.5601
vn 0.4918 0.7715 -0.4036
vn 0.5987 -0.6326 -0.4913
vn 0.5987 0.6326 -0.4913
vn 0.4918 -0.7715 -0.4036
vn 0.6825 0.4696 -0.5601
vn 0.3658 -0.8810 -0.3002
vn 0.7400 0.2890 -0.6073
vn 0.2254 -0.9565 -0.1850
vn 0.7693 0.0975 -0.6314
vn 0.0761 0.9951 -0.0625
vn 0.0761 -0.9951 -0.0625
vn 0.7693 -0.0975 -0.6314
vn 0.7786 0.4696 -0.4162
vn 0.4173 -0.8810 -0.2230
vn 0.8443 0.2890 -0.4513
vn 0.2571 -0.9565 -0.1374
vn 0.8777 0.0975 -0.4691
vn 0.0869 0.9951 -0.0464
vn 0.0869 -0.9951 -0.0464
vn 0.8777 -0.0975 -0.4691
vn 0.2571 0.9565 -0.1374
vn 0.8443 -0.2890 -0.4513
vn 0.4173 0.8810 -0.2230
vn 0.7786 -0.4696 -0.4162
vn 0.5611 0.7715 -0.2999
vn 0.6831 -0.6326 -0.3651
vn 0.6831 0.6326 -0.3651
vn 0.5611 -0.7715 -0.2999
vn 0.9161 -0.2890 -0.2779
vn 0.4528 0.8810 -0.1374
vn 0.8448 -0.4696 -0.2563
vn 0.6088 0.7715 -0.1847
vn 0.7412 -0.6326 -0.2248
vn 0.7412 0.6326 -0.2248
vn 0.6088 -0.7715 -0.1847
vn 0.8448 0.4696 -0.2563
vn 0.4528 -0.8810 -0.1374
vn 0.9161 0.2890 -0.2779
vn 0.2790 -0.9565 -0.0846
vn 0.9524 0.0975 -0.2889
vn 0.0942 0.9951 -0.0286
vn 0.0942 -0.9951 -0.0286
vn 0.9524 -0.0975 -0.2889
vn 0.2790 0.9565 -0.0846
vn 0.4709 -0.8810 -0.0464
vn 0.9527 0.2890 -0.0938
vn 0.2902 -0.9565 -0.0286
vn 0.9904 0.0975 -0.0976
vn 0.0980 0.9951 -0.0097
vn 0.0980 -0.9951 -0.0097
vn 0.9904 -0.0975 -0.0975
vn 0.2902 0.9565 -0.0286
vn 0.9527 -0.2890 -0.0938
vn 0.4709 0.8810 -0.0464
vn 0.8786 -0.4696 -0.0865
vn 0.6332 0.7715 -0.0624
vn 0.7708 -0.6326 -0.0759
vn 0.7708 0.6326 -0.0759
vn 0.6332 -0.7715 -0.0624
vn 0.8786 0.4696 -0.0865
vn 0.8786 -0.4696 0.0865
vn 0.6332 0.7715 0.0624
vn 0.7708 -0.6326 0.0759
vn 0.7708 0.6326 0.0759
vn 0.6332 -0.7715 0.0624
vn 0.8786 0.4696 0.0865
vn 0.4709 -0.8810 0.0464
vn 0.9527 0.2890 0.0938
vn 0.2902 -0.9565 0.0286
vn 0.9904 0.0975 0.0976
vn 0.0980 0.9951 0.0097
vn 0.0980 -0.9951 0.0097
vn 0.9904 -0.0975 0.0976
vn 0.2902 0.9565 0.0286
vn 0.9527 -0.2890 0.0938
vn 0.4709 0.8810 0.0464
vn 0.2790 -0.9565 0.0846
vn 0.9524 0.0975 0.2889
vn 0.0943 0.9951 0.0286
vn 0.0942 -0.9951 0.0286
vn 0.9524 -0.0975 0.2889
vn 0.2790 0.9566 0.0846
vn 0.9161 -0.2890 0.2779
vn 0.4528 0.8810 0.1374
vn 0.8448 -0.4696 0.2563
vn 0.6088 0.7715 0.1847
vn 0.7412 -0.6326 0.2248
vn 0.7412 0.6326 0.2248
vn 0.6088 -0.7715 0.1847
vn 0.8448 0.4696 0.2563
vn 0.4528 -0.8810 0.1374
vn 0.9161 0.2890 0.2779
vn 0.5611 0.7715 0.2999
vn 0.6831 -0.6326 0.3651
vn 0.6831 0.6326 0.3651
vn 0.5611 -0.7715 0.2999
vn 0.7786 0.4696 0.4162
vn 0.4173 -0.8810 0.2231
vn 0.8443 0.2890 0.4513
vn 0.2571 -0.9565 0.1374
vn 0.8777 0.0975 0.4692
vn 0.0869 0.9951 0.0464
vn 0.0869 -0.9951 0.0464
vn 0.8777 -0.0975 0.4691
vn 0.2571 0.9565 0.1374
vn 0.8443 -0.2890 0.4513
vn 0.4173 0.8810 0.2230
vn 0.7786 -0.4696 0.4162
vn 0.7693 0.0975 0.6314
vn 0.0761 0.9951 0.0625
vn 0.0761 -0.9951 0.0625
vn 0.7693 -0.0975 0.6314
vn 0.2254 0.9565 0.1850
vn 0.7400 -0.2890 0.6073
vn 0.3658 0.8810 0.3002
vn 0.6825 -0.4696 0.5601
vn 0.4918 0.7715 0.4036
vn 0.5987 -0.6326 0.4913
vn 0.5987 0.6326 0.4913
vn 0.4918 -0.7715 0.4036
vn 0.6825 0.4696 0.5601
vn 0.3658 -0.8810 0.3002
vn 0.7400 0.2890 0.6073
vn 0.2254 -0.9565 0.1850
vn 0.4913 -0.6326 0.5987
vn 0.4913 0.6326 0.5987
vn 0.4036 -0.7715 0.4918
vn 0.5601 0.4696 0.6825
vn 0.3002 -0.8810 0.3658
vn 0.6073 0.2890 0.7400
vn 0.1850 -0.9565 0.2254
vn 0.6314 0.0975 0.7693
vn 0.0625 0.9951 0.0761
vn 0.0625 -0.9951 0.0761
vn 0.6314 -0.0975 0.7693
vn 0.1850 0.9565 0.2254
vn 0.6073 -0.2890 0.7400
vn 0.3002 0.8810 0.3658
vn 0.5601 -0.4696 0.6825
vn 0.4036 0.7715 0.4918
vn 0.0464 0.9951 0.0869
vn 0.0464 -0.9951 0.0869
vn 0.4691 -0.0975 0.8777
vn 0.1374 0.9565 0.2571
vn 0.4513 -0.2890 0.8443
vn 0.2230 0.8810 0.4173
vn 0.4162 -0.4696 0.7786
vn 0.2999 0.7715 0.5611
vn 0.3651 -0.6326 0.6831
vn 0.3651 0.6326 0.6831
vn 0.2999 -0.7715 0.5611
vn 0.4162 0.4696 0.7786
vn 0.2230 -0.8810 0.4173
vn 0.4513 0.2890 0.8443
vn 0.1374 -0.9565 0.2571
vn 0.4691 0.0975 0.8777
vn 0.2248 0.6326 0.7412
vn 0.1847 -0.7715 0.6088
vn 0.2563 0.4696 0.8448
vn 0.1374 -0.8810 0.4528
vn 0.2779 0.2890 0.9161
vn 0.0846 -0.9565 0.2790
vn 0.2889 0.0975 0.9524
vn 0.0286 0.9951 0.0942
vn 0.0286 -0.9951 0.0942
vn 0.2889 -0.0975 0.9524
vn 0.0846 0.9565 0.2790
vn 0.2779 -0.2890 0.9161
vn 0.1373 0.8810 0.4528
vn 0.2563 -0.4696 0.8448
vn 0.1847 0.7715 0.6088
vn 0.2248 -0.6326 0.7412
vn 0.0976 -0.0975 0.9904
vn 0.0286 0.9565 0.2902
vn 0.0938 -0.2890 0.9527
vn 0.0464 0.8810 0.4709
vn 0.0865 -0.4696 0.8786
vn 0.0624 0.7715 0.6332
vn 0.0759 -0.6326 0.7708
vn 0.0759 0.6326 0.7708
vn 0.0624 -0.7715 0.6332
vn 0.0865 0.4696 0.8786
vn 0.0464 -0.8810 0.4709
vn 0.0938 0.2890 0.9527
vn 0.0286 -0.9565 0.2902
vn 0.0976 0.0975 0.9904
vn 0.0097 0.9951 0.0980
vn 0.0096 -0.9951 0.0980
vn -0.0000 -1.0000 -0.0000
vn -0.0918 0.3496 0.9324
vn 0.0918 0.3496 0.9324
vn 0.2720 0.3496 0.8965
vn 0.4416 0.3496 0.8263
vn 0.5944 0.3496 0.7242
vn 0.7242 0.3496 0.5944
vn 0.8263 0.3496 0.4416
vn 0.8965 0.3496 0.2720
vn 0.9324 0.3496 0.0918
vn 0.9324 0.3496 -0.0918
vn 0.8965 0.3496 -0.2720
vn 0.8263 0.3496 -0.4416
vn 0.7242 0.3496 -0.5944
vn 0.5944 0.3496 -0.7242
vn 0.4416 0.3496 -0.8263
vn 0.2720 0.3496 -0.8965
vn 0.0918 0.3496 -0.9324
vn -0.0918 0.3496 -0.9324
vn -0.2720 0.3496 -0.8965
vn -0.4416 0.3496 -0.8263
vn -0.5944 0.3496 -0.7242
vn -0.7242 0.3496 -0.5944
vn -0.8263 0.3496 -0.4416
vn -0.8965 0.3496 -0.2720
vn -0.9324 0.3496 -0.0918
vn -0.9324 0.3496 0.0918
vn -0.8965 0.3496 0.2720
vn -0.8263 0.3496 0.4416
vn -0.7242 0.3496 0.5944
vn -0.5944 0.3496 0.7242
vn -0.4416 0.3496 0.8263
vn -0.2720 0.3496 0.8965
vn -0.0366 0.9279 0.3711
vn -0.1083 0.9279 0.3569
vn -0.1758 0.9279 0.3289
vn -0.2366 0.9279 0.2883
vn -0.2883 0.9279 0.2366
vn -0.3289 0.9279 0.1758
vn -0.3569 0.9279 0.1083
vn -0.3711 0.9279 0.0366
vn -0.3711 0.9279 -0.0366
vn -0.3569 0.9279 -0.1083
vn -0.3289 0.9279 -0.1758
vn -0.2883 0.9279 -0.2366
vn -0.2366 0.9279 -0.2883
vn -0.1758 0.9279 -0.3289
vn -0.1083 0.9279 -0.3569
vn -0.0366 0.9279 -0.3711
vn 0.0366 0.9279 -0.3711
vn 0.1083 0.9279 -0.3569
vn 0.1758 0.9279 -0.3289
vn 0.2366 0.9279 -0.2883
vn 0.2883 0.9279 -0.2366
vn 0.3289 0.9279 -0.1758
vn 0.3569 0.9279 -0.1083
vn 0.3711 0.9279 -0.0366
vn 0.3711 0.9279 0.0366
vn 0.3569 0.9279 0.1083
vn 0.3289 0.9279 0.1758
vn 0.2883 0.9279 0.2366
vn 0.2366 0.9279 0.2883
vn 0.1758 0.9279 0.3289
vn 0.1083 0.9279 0.3569
vn 0.0366 0.9279 0.3711
vn 0.0399 -0.4125 0.9101
vn -0.7285 0.6113 0.3090
vn -0.7285 0.6113 0.3091
vn -0.7285 0.6114 0.3090
vn 0.7286 -0.6113 -0.3089
vn 0.7285 -0.6114 -0.3090
vn 0.7285 -0.6113 -0.3090
vn 0.7286 -0.6114 -0.3089
vn -0.0975 -0.0976 0.9904
vn -0.2889 0.0975 0.9524
vn -0.2231 -0.8810 0.4173
vn -0.2231 0.8810 0.4173
vn -0.6314 0.0976 0.7693
vn -0.6314 -0.0975 0.7693
vn -0.1850 0.9566 0.2254
vn -0.2790 0.9565 0.0846
vn -0.2902 0.9566 -0.0286
vn -0.2790 0.9566 -0.0846
vn -0.4173 -0.8810 -0.2230
vn -0.1850 0.9566 -0.2254
vn -0.2231 -0.8810 -0.4173
vn -0.1374 0.9566 -0.2571
vn -0.2231 0.8810 -0.4173
vn 0.1374 0.9566 -0.2571
vn 0.2231 0.8810 -0.4173
vn 0.1850 -0.9565 -0.2254
vn 0.1850 0.9566 -0.2254
vn 0.4173 0.8810 -0.2231
vn 0.9904 0.0975 -0.0975
vn 0.9904 -0.0975 -0.0976
vn 0.2902 0.9566 0.0286
vn 0.2790 0.9565 0.0846
vn 0.4173 -0.8810 0.2230
vn 0.8777 0.0975 0.4691
vn 0.2571 0.9566 0.1374
vn 0.4173 0.8810 0.2231
vn 0.1374 0.9566 0.2571
vn 0.2231 -0.8810 0.4173
vn 0.1374 0.8810 0.4528
vt 0.904011 0.499623
vt 0.901802 0.821509
vt 0.901802 0.499623
vt 0.899594 0.499623
vt 0.897386 0.821509
vt 0.897386 0.499623
vt 0.895177 0.499623
vt 0.892968 0.821509
vt 0.892968 0.499623
vt 0.890760 0.499623
vt 0.890760 0.821509
vt 0.888551 0.499623
vt 0.888551 0.821509
vt 0.886343 0.499623
vt 0.884134 0.821509
vt 0.884134 0.499623
vt 0.881926 0.821509
vt 0.881926 0.499623
vt 0.879717 0.821509
vt 0.879717 0.499623
vt 0.877509 0.821509
vt 0.877509 0.499623
vt 0.875300 0.499623
vt 0.875300 0.821509
vt 0.873092 0.499623
vt 0.873092 0.821509
vt 0.870883 0.499623
vt 0.870883 0.821509
vt 0.868675 0.499623
vt 0.868675 0.821509
vt 0.866466 0.499623
vt 0.866466 0.821509
vt 0.864258 0.499623
vt 0.864258 0.821509
vt 0.862049 0.499623
vt 0.859840 0.821509
vt 0.859840 0.499623
vt 0.857632 0.499623
vt 0.855424 0.821509
vt 0.855424 0.499623
vt 0.853215 0.499623
vt 0.851006 0.821509
vt 0.851006 0.499623
vt 0.848798 0.499623
vt 0.846589 0.821509
vt 0.846589 0.499623
vt 0.844381 0.821509
vt 0.844381 0.499623
vt 0.842172 0.499623
vt 0.842172 0.821509
vt 0.839964 0.499623
vt 0.837755 0.821509
vt 0.837755 0.499623
vt 0.021036 0.033352
vt 0.010928 0.021036
vt 0.023244 0.010928
vt 0.835547 0.821509
vt 0.835547 0.499623
vt 0.833338 0.821509
vt 0.833338 0.499623
vt 0.010928 0.068884
vt 0.021036 0.056568
vt 0.033352 0.066675
vt 0.034299 0.297818
vt 0.066246 0.277047
vt 0.069671 0.283645
vt 0.204661 0.228325
vt 0.190161 0.244124
vt 0.188890 0.229075
vt 0.316127 0.256157
vt 0.343867 0.280948
vt 0.311675 0.265866
vt 0.172804 0.231097
vt 0.175061 0.245730
vt 0.292401 0.245008
vt 0.288167 0.256744
vt 0.159225 0.248472
vt 0.156131 0.234592
vt 0.272189 0.237758
vt 0.268391 0.250973
vt 0.137975 0.239736
vt 0.142086 0.252651
vt 0.253689 0.233092
vt 0.250977 0.247212
vt 0.122968 0.258895
vt 0.118490 0.247459
vt 0.236773 0.230085
vt 0.234949 0.244893
vt 0.100083 0.268308
vt 0.095534 0.258977
vt 0.219701 0.243777
vt 0.220524 0.228543
vt 0.204933 0.243495
vt 0.347168 0.273917
vt 0.381382 0.294276
vt 0.072524 0.290495
vt 0.205170 0.257765
vt 0.379728 0.298548
vt 0.341132 0.288246
vt 0.036153 0.301623
vt 0.191181 0.258285
vt 0.307692 0.275515
vt 0.176848 0.259556
vt 0.284703 0.268107
vt 0.161692 0.261717
vt 0.265518 0.263580
vt 0.145394 0.265100
vt 0.248855 0.260645
vt 0.126611 0.270093
vt 0.233481 0.258927
vt 0.103753 0.277687
vt 0.219162 0.257975
vt 0.263228 0.275781
vt 0.147899 0.277143
vt 0.247151 0.273529
vt 0.129360 0.281024
vt 0.232482 0.272142
vt 0.106954 0.287021
vt 0.218675 0.271484
vt 0.074846 0.297533
vt 0.205324 0.271403
vt 0.376521 0.306233
vt 0.338313 0.295459
vt 0.037780 0.305860
vt 0.191994 0.271783
vt 0.304785 0.285213
vt 0.178282 0.272780
vt 0.281888 0.279269
vt 0.163717 0.274484
vt 0.218428 0.284457
vt 0.205534 0.284398
vt 0.374302 0.310886
vt 0.336002 0.302740
vt 0.039003 0.310419
vt 0.076665 0.304738
vt 0.192645 0.284731
vt 0.302511 0.294810
vt 0.179425 0.285506
vt 0.279723 0.290238
vt 0.165234 0.286802
vt 0.261422 0.287657
vt 0.149777 0.288853
vt 0.245906 0.285945
vt 0.131794 0.291818
vt 0.231676 0.284956
vt 0.109199 0.296440
vt 0.151198 0.300329
vt 0.260231 0.299238
vt 0.244933 0.298038
vt 0.133562 0.302486
vt 0.231118 0.297332
vt 0.111136 0.305813
vt 0.218192 0.297028
vt 0.078010 0.312049
vt 0.205660 0.297046
vt 0.372392 0.315755
vt 0.334168 0.310053
vt 0.040040 0.315253
vt 0.193132 0.297280
vt 0.300854 0.304311
vt 0.180223 0.297839
vt 0.278111 0.301042
vt 0.166432 0.298815
vt 0.040641 0.320278
vt 0.078897 0.319461
vt 0.193491 0.309546
vt 0.299473 0.313731
vt 0.180813 0.309930
vt 0.277112 0.311668
vt 0.167278 0.310603
vt 0.259455 0.310599
vt 0.152304 0.311623
vt 0.244287 0.309882
vt 0.134567 0.313026
vt 0.230758 0.309454
vt 0.112541 0.315208
vt 0.218071 0.309311
vt 0.205779 0.309378
vt 0.370902 0.320766
vt 0.332787 0.317389
vt 0.152909 0.322822
vt 0.135405 0.323506
vt 0.230603 0.321398
vt 0.113133 0.324643
vt 0.218048 0.321403
vt 0.079330 0.326960
vt 0.205894 0.321515
vt 0.370746 0.322312
vt 0.332554 0.324853
vt 0.040863 0.325420
vt 0.193743 0.321630
vt 0.298903 0.323141
vt 0.181200 0.321857
vt 0.276452 0.322237
vt 0.167799 0.322244
vt 0.258882 0.321851
vt 0.244056 0.321533
vt 0.298603 0.332525
vt 0.181394 0.333703
vt 0.276367 0.332736
vt 0.168030 0.333821
vt 0.258844 0.333030
vt 0.153156 0.333976
vt 0.243998 0.333129
vt 0.135653 0.333966
vt 0.230623 0.333249
vt 0.113519 0.334037
vt 0.218116 0.333401
vt 0.080047 0.334401
vt 0.206006 0.333560
vt 0.370247 0.331266
vt 0.332026 0.332294
vt 0.041727 0.334339
vt 0.193897 0.333626
vt 0.230825 0.345103
vt 0.113141 0.343447
vt 0.218274 0.345402
vt 0.079610 0.341817
vt 0.206117 0.345608
vt 0.370235 0.332834
vt 0.332648 0.339723
vt 0.041998 0.335879
vt 0.193957 0.345627
vt 0.299086 0.341901
vt 0.181401 0.345557
vt 0.276609 0.343244
vt 0.167981 0.345407
vt 0.259140 0.344194
vt 0.153046 0.345131
vt 0.244234 0.344717
vt 0.135551 0.344450
vt 0.181220 0.357505
vt 0.277396 0.353801
vt 0.167651 0.357081
vt 0.259805 0.355424
vt 0.152560 0.356370
vt 0.244761 0.356380
vt 0.134885 0.354995
vt 0.231219 0.357042
vt 0.112586 0.352896
vt 0.218530 0.357496
vt 0.078729 0.349237
vt 0.206230 0.357754
vt 0.371191 0.338084
vt 0.333700 0.347175
vt 0.041317 0.341034
vt 0.193925 0.357726
vt 0.299783 0.351311
vt 0.133850 0.365639
vt 0.111183 0.362383
vt 0.231817 0.369152
vt 0.218889 0.369777
vt 0.077390 0.356668
vt 0.206347 0.370095
vt 0.372403 0.347051
vt 0.334461 0.354687
vt 0.040151 0.346119
vt 0.193795 0.370019
vt 0.301075 0.360751
vt 0.180843 0.369637
vt 0.278630 0.364426
vt 0.167024 0.368921
vt 0.260858 0.366763
vt 0.151689 0.367737
vt 0.245590 0.368191
vt 0.302852 0.370233
vt 0.280359 0.375148
vt 0.180252 0.382050
vt 0.166077 0.381015
vt 0.262335 0.378275
vt 0.150390 0.379321
vt 0.246749 0.380231
vt 0.132199 0.376435
vt 0.232641 0.381528
vt 0.109505 0.371925
vt 0.219367 0.382348
vt 0.076285 0.364145
vt 0.206471 0.382736
vt 0.372648 0.348588
vt 0.336372 0.361985
vt 0.038694 0.354770
vt 0.193563 0.382608
vt 0.233724 0.394276
vt 0.219982 0.395323
vt 0.074035 0.371331
vt 0.206608 0.395796
vt 0.374923 0.356900
vt 0.338093 0.369374
vt 0.038500 0.356260
vt 0.193217 0.395611
vt 0.305274 0.379748
vt 0.179422 0.394852
vt 0.282645 0.386015
vt 0.164770 0.393451
vt 0.264291 0.390030
vt 0.148628 0.391165
vt 0.248285 0.392591
vt 0.130103 0.387385
vt 0.106959 0.381472
vt 0.178316 0.408167
vt 0.163046 0.406340
vt 0.266801 0.402095
vt 0.146315 0.403379
vt 0.250257 0.405367
vt 0.127268 0.398595
vt 0.235112 0.407513
vt 0.104049 0.391123
vt 0.220760 0.408834
vt 0.071273 0.378409
vt 0.206762 0.409411
vt 0.375943 0.361573
vt 0.340328 0.376574
vt 0.036548 0.360779
vt 0.192740 0.409162
vt 0.308328 0.389271
vt 0.285563 0.397051
vt 0.067959 0.385358
vt 0.221737 0.423037
vt 0.206938 0.423746
vt 0.377309 0.365852
vt 0.343113 0.383551
vt 0.034165 0.364978
vt 0.192108 0.423418
vt 0.312103 0.398780
vt 0.176880 0.422137
vt 0.289214 0.408292
vt 0.160830 0.419795
vt 0.269965 0.414548
vt 0.143372 0.416017
vt 0.252751 0.418673
vt 0.123713 0.410047
vt 0.236869 0.421379
vt 0.100392 0.400861
vt 0.139677 0.429168
vt 0.273925 0.427475
vt 0.255878 0.432636
vt 0.119391 0.421743
vt 0.239080 0.436039
vt 0.095605 0.410559
vt 0.222965 0.438124
vt 0.064046 0.392126
vt 0.207147 0.439000
vt 0.378032 0.366993
vt 0.346993 0.390016
vt 0.031470 0.368781
vt 0.191285 0.438578
vt 0.316645 0.408258
vt 0.175038 0.436940
vt 0.293725 0.419766
vt 0.158014 0.433957
vt 0.382144 0.372619
vt 0.351039 0.396508
vt 0.028638 0.372240
vt 0.059511 0.398622
vt 0.190222 0.454886
vt 0.322189 0.417676
vt 0.172687 0.452794
vt 0.299272 0.431502
vt 0.154446 0.449003
vt 0.278874 0.440981
vt 0.135044 0.442962
vt 0.259776 0.447386
vt 0.114019 0.433792
vt 0.241870 0.451700
vt 0.089916 0.420234
vt 0.224515 0.454336
vt 0.207397 0.455429
vt 0.284862 0.455073
vt 0.264842 0.463255
vt 0.129237 0.457509
vt 0.107416 0.446184
vt 0.245433 0.468658
vt 0.083150 0.429814
vt 0.226482 0.471987
vt 0.054327 0.404770
vt 0.207703 0.473359
vt 0.384363 0.375516
vt 0.355749 0.402579
vt 0.025556 0.375251
vt 0.188849 0.472657
vt 0.328781 0.426934
vt 0.169678 0.469972
vt 0.306046 0.443469
vt 0.149919 0.465139
vt 0.187064 0.492304
vt 0.336587 0.435904
vt 0.165802 0.488827
vt 0.314379 0.455657
vt 0.144144 0.482618
vt 0.292592 0.469995
vt 0.121922 0.472940
vt 0.271039 0.480163
vt 0.099160 0.458980
vt 0.249947 0.487153
vt 0.075377 0.439282
vt 0.229003 0.491457
vt 0.048471 0.410466
vt 0.208085 0.493216
vt 0.386752 0.377759
vt 0.361158 0.408126
vt 0.022343 0.377742
vt 0.112692 0.489316
vt 0.089236 0.471879
vt 0.255838 0.507730
vt 0.065823 0.448271
vt 0.232280 0.513309
vt 0.042154 0.415928
vt 0.208567 0.515585
vt 0.389133 0.379345
vt 0.367279 0.413010
vt 0.017447 0.380974
vt 0.184716 0.514379
vt 0.345960 0.444257
vt 0.160753 0.509811
vt 0.324411 0.467836
vt 0.136710 0.501734
vt 0.302034 0.485535
vt 0.279230 0.498792
vt 0.356844 0.451866
vt 0.154076 0.533538
vt 0.336813 0.479946
vt 0.127026 0.522871
vt 0.314254 0.502013
vt 0.100838 0.506825
vt 0.289611 0.519004
vt 0.076775 0.484958
vt 0.263521 0.530821
vt 0.054874 0.456697
vt 0.236601 0.538246
vt 0.035101 0.420569
vt 0.209190 0.541259
vt 0.391464 0.380228
vt 0.374104 0.417082
vt 0.014954 0.382264
vt 0.181581 0.539645
vt 0.273836 0.557274
vt 0.041940 0.463978
vt 0.242418 0.567327
vt 0.027299 0.423929
vt 0.210010 0.571365
vt 0.393518 0.380418
vt 0.381592 0.420154
vt 0.014059 0.382450
vt 0.177317 0.569186
vt 0.369441 0.458340
vt 0.145066 0.560846
vt 0.352054 0.491593
vt 0.114230 0.546368
vt 0.329839 0.519230
vt 0.086018 0.525059
vt 0.303345 0.541406
vt 0.061404 0.497665
vt 0.132532 0.593088
vt 0.383892 0.463153
vt 0.370715 0.502104
vt 0.096862 0.572890
vt 0.350047 0.536960
vt 0.066026 0.544549
vt 0.321783 0.566294
vt 0.042372 0.509630
vt 0.288048 0.588259
vt 0.027084 0.469671
vt 0.250378 0.602093
vt 0.018853 0.426306
vt 0.211116 0.607449
vt 0.395050 0.379981
vt 0.389648 0.422002
vt 0.010947 0.382032
vt 0.171436 0.604625
vt 0.010153 0.472994
vt 0.308577 0.625999
vt 0.261287 0.644888
vt 0.010079 0.427111
vt 0.212627 0.651239
vt 0.395785 0.379150
vt 0.398085 0.422379
vt 0.010361 0.381949
vt 0.163383 0.648415
vt 0.400222 0.465616
vt 0.114252 0.632724
vt 0.393293 0.510263
vt 0.073036 0.602431
vt 0.376838 0.554736
vt 0.039396 0.564634
vt 0.346869 0.593517
vt 0.019391 0.519316
vt 0.063038 0.073336
vt 0.122810 0.078794
vt 0.089121 0.101274
vt 0.392335 0.148354
vt 0.345384 0.123365
vt 0.370967 0.104489
vt 0.061301 0.130679
vt 0.035211 0.113654
vt 0.340250 0.065229
vt 0.315473 0.095089
vt 0.016894 0.157601
vt 0.040312 0.166020
vt 0.280131 0.074335
vt 0.298440 0.036958
vt 0.028052 0.205097
vt 0.011683 0.203004
vt 0.251812 0.017480
vt 0.241478 0.061873
vt 0.022528 0.246718
vt 0.014059 0.246386
vt 0.199336 0.010187
vt 0.200776 0.058363
vt 0.400129 0.239778
vt 0.399867 0.284811
vt 0.391381 0.240584
vt 0.016598 0.289759
vt 0.160428 0.064213
vt 0.147501 0.020716
vt 0.383455 0.197789
vt 0.400222 0.194745
vt 0.102477 0.042933
vt 0.368792 0.158292
vt 0.042653 0.209717
vt 0.030661 0.248536
vt 0.234877 0.097701
vt 0.201810 0.095552
vt 0.399063 0.284220
vt 0.383055 0.242906
vt 0.017322 0.289116
vt 0.168976 0.099465
vt 0.368641 0.203296
vt 0.137376 0.109626
vt 0.349901 0.169956
vt 0.107907 0.126110
vt 0.325723 0.142368
vt 0.081558 0.148267
vt 0.297821 0.121273
vt 0.059295 0.176439
vt 0.267181 0.106213
vt 0.310593 0.160633
vt 0.097287 0.165448
vt 0.284825 0.144599
vt 0.074719 0.187920
vt 0.257900 0.133503
vt 0.055303 0.216058
vt 0.230349 0.127436
vt 0.038219 0.251351
vt 0.202594 0.125994
vt 0.396110 0.283797
vt 0.375364 0.246219
vt 0.020080 0.288499
vt 0.175001 0.128805
vt 0.355906 0.210437
vt 0.147951 0.136180
vt 0.334683 0.182457
vt 0.121879 0.148457
vt 0.227110 0.152776
vt 0.203205 0.151768
vt 0.393511 0.284226
vt 0.368330 0.250466
vt 0.022577 0.288699
vt 0.045173 0.255099
vt 0.179419 0.153865
vt 0.345029 0.218669
vt 0.155807 0.159373
vt 0.322384 0.195257
vt 0.132478 0.168685
vt 0.298854 0.177916
vt 0.109593 0.181892
vt 0.275060 0.165557
vt 0.087278 0.199879
vt 0.251093 0.157228
vt 0.066176 0.223581
vt 0.119303 0.197514
vt 0.289668 0.194193
vt 0.267600 0.184558
vt 0.097534 0.211978
vt 0.245996 0.178202
vt 0.075526 0.231892
vt 0.224728 0.174866
vt 0.051340 0.259954
vt 0.203692 0.174148
vt 0.390607 0.285294
vt 0.361991 0.255454
vt 0.023492 0.288989
vt 0.182748 0.175749
vt 0.335821 0.227589
vt 0.161764 0.179950
vt 0.312412 0.208037
vt 0.140652 0.187133
vt 0.389736 0.285950
vt 0.356598 0.261421
vt 0.028019 0.291579
vt 0.057037 0.265083
vt 0.185305 0.195227
vt 0.327990 0.236936
vt 0.166352 0.198480
vt 0.304284 0.220639
vt 0.147046 0.204104
vt 0.282438 0.209523
vt 0.127015 0.212327
vt 0.261817 0.201958
vt 0.105917 0.223995
vt 0.242122 0.197033
vt 0.083379 0.240667
vt 0.222942 0.194499
vt 0.204086 0.193985
vt 0.257250 0.218069
vt 0.133154 0.226389
vt 0.112799 0.235842
vt 0.239165 0.214163
vt 0.090045 0.249748
vt 0.221587 0.212240
vt 0.061774 0.271050
vt 0.204405 0.211884
vt 0.385113 0.290169
vt 0.351559 0.267505
vt 0.028967 0.292231
vt 0.187297 0.212851
vt 0.321491 0.246497
vt 0.169908 0.215376
vt 0.297616 0.232968
vt 0.152139 0.219880
vt 0.276758 0.223978
vt 0.382078 0.293110
vt 0.033418 0.296864
vt 0.965449 0.365653
vt 0.833491 0.473948
vt 0.725197 0.341990
vt 0.402912 0.584303
vt 0.606067 0.604312
vt 0.402912 0.624321
vt 0.410719 0.545054
vt 0.426034 0.508082
vt 0.448266 0.474808
vt 0.476563 0.446511
vt 0.509837 0.424278
vt 0.546809 0.408964
vt 0.586058 0.401157
vt 0.626076 0.401157
vt 0.665325 0.408964
vt 0.702297 0.424278
vt 0.735570 0.446511
vt 0.763867 0.474808
vt 0.786100 0.508082
vt 0.801414 0.545054
vt 0.809222 0.584303
vt 0.809222 0.624321
vt 0.801414 0.663570
vt 0.786100 0.700541
vt 0.763867 0.733815
vt 0.735570 0.762112
vt 0.702297 0.784345
vt 0.665325 0.799659
vt 0.626076 0.807466
vt 0.586058 0.807466
vt 0.546809 0.799659
vt 0.509837 0.784345
vt 0.476563 0.762112
vt 0.448266 0.733815
vt 0.426034 0.700541
vt 0.410719 0.663570
vt 0.638784 0.337661
vt 0.590282 0.177772
vt 0.669045 0.325126
vt 0.696279 0.306929
vt 0.719439 0.283769
vt 0.737636 0.256535
vt 0.750171 0.226274
vt 0.756561 0.194149
vt 0.756561 0.161395
vt 0.750171 0.129271
vt 0.737636 0.099010
vt 0.719439 0.071776
vt 0.696279 0.048616
vt 0.669045 0.030418
vt 0.638784 0.017884
vt 0.606659 0.011494
vt 0.573905 0.011494
vt 0.541781 0.017884
vt 0.511520 0.030418
vt 0.484286 0.048616
vt 0.461126 0.071776
vt 0.442928 0.099010
vt 0.430394 0.129271
vt 0.424004 0.161395
vt 0.424004 0.194149
vt 0.430394 0.226274
vt 0.442928 0.256535
vt 0.461126 0.283769
vt 0.484286 0.306929
vt 0.511520 0.325126
vt 0.541781 0.337661
vt 0.573905 0.344051
vt 0.452883 0.845631
vt 0.276940 0.990024
vt 0.132547 0.814080
vt 0.606659 0.344051
vt 0.904011 0.821509
vt 0.899594 0.821509
vt 0.895177 0.821509
vt 0.886343 0.821509
vt 0.862049 0.821509
vt 0.857632 0.821509
vt 0.853215 0.821509
vt 0.848798 0.821509
vt 0.839964 0.821509
vt 0.025410 0.011359
vt 0.027451 0.012204
vt 0.029287 0.013431
vt 0.030849 0.014993
vt 0.032076 0.016829
vt 0.032921 0.018870
vt 0.033352 0.021036
vt 0.033352 0.023244
vt 0.032921 0.025410
vt 0.032076 0.027451
vt 0.030849 0.029287
vt 0.029287 0.030849
vt 0.027451 0.032076
vt 0.025410 0.032921
vt 0.023244 0.033352
vt 0.018870 0.032921
vt 0.016829 0.032076
vt 0.014993 0.030849
vt 0.013431 0.029287
vt 0.012204 0.027451
vt 0.011359 0.025410
vt 0.010928 0.023244
vt 0.011359 0.018870
vt 0.012204 0.016829
vt 0.013431 0.014993
vt 0.014993 0.013431
vt 0.016829 0.012204
vt 0.018870 0.011359
vt 0.021036 0.010928
vt 0.033352 0.068884
vt 0.032921 0.071050
vt 0.032076 0.073090
vt 0.030849 0.074927
vt 0.029287 0.076488
vt 0.027451 0.077715
vt 0.025410 0.078560
vt 0.023244 0.078991
vt 0.021036 0.078991
vt 0.018870 0.078560
vt 0.016829 0.077715
vt 0.014993 0.076488
vt 0.013431 0.074927
vt 0.012204 0.073090
vt 0.011359 0.071050
vt 0.010928 0.066675
vt 0.011359 0.064509
vt 0.012204 0.062469
vt 0.013431 0.060632
vt 0.014993 0.059071
vt 0.016829 0.057844
vt 0.018870 0.056999
vt 0.023244 0.056568
vt 0.025410 0.056999
vt 0.027451 0.057844
vt 0.029287 0.059071
vt 0.030849 0.060632
vt 0.032076 0.062469
vt 0.032921 0.064509
vt 0.729813 0.318782
vt 0.738868 0.296920
vt 0.752015 0.277246
vt 0.768747 0.260513
vt 0.788422 0.247367
vt 0.810283 0.238312
vt 0.833491 0.233695
vt 0.857154 0.233695
vt 0.880362 0.238312
vt 0.902224 0.247367
vt 0.921899 0.260513
vt 0.938631 0.277246
vt 0.951777 0.296920
vt 0.960832 0.318782
vt 0.965449 0.341990
vt 0.960832 0.388861
vt 0.951777 0.410722
vt 0.938631 0.430397
vt 0.921899 0.447129
vt 0.902224 0.460276
vt 0.880362 0.469331
vt 0.857154 0.473947
vt 0.810283 0.469331
vt 0.788422 0.460276
vt 0.768747 0.447129
vt 0.752015 0.430397
vt 0.738868 0.410723
vt 0.729813 0.388861
vt 0.725197 0.365653
vt 0.138702 0.783136
vt 0.150776 0.753988
vt 0.168305 0.727755
vt 0.190614 0.705445
vt 0.216847 0.687917
vt 0.245996 0.675843
vt 0.276940 0.669688
vt 0.308490 0.669688
vt 0.339435 0.675843
vt 0.368583 0.687917
vt 0.394816 0.705445
vt 0.417126 0.727755
vt 0.434654 0.753988
vt 0.446728 0.783137
vt 0.452883 0.814081
vt 0.446728 0.876575
vt 0.434654 0.905724
vt 0.417126 0.931957
vt 0.394816 0.954267
vt 0.368583 0.971795
vt 0.339434 0.983869
vt 0.308490 0.990024
vt 0.245996 0.983869
vt 0.216847 0.971795
vt 0.190614 0.954266
vt 0.168304 0.931957
vt 0.150776 0.905724
vt 0.138702 0.876575
vt 0.132547 0.845631
s 0
usemtl 
f 1/1/1 4/2/1 3/3/1
f 4/2/2 5/4/2 3/3/2
f 5/4/3 8/5/3 7/6/3
f 8/5/4 9/7/4 7/6/4
f 9/7/5 12/8/5 11/9/5
f 12/8/6 13/10/6 11/9/6
f 14/11/7 15/12/7 13/10/7
f 16/13/8 17/14/8 15/12/8
f 17/14/9 20/15/9 19/16/9
f 19/16/10 22/17/10 21/18/10
f 21/18/11 24/19/11 23/20/11
f 23/20/12 26/21/12 25/22/12
f 26/21/13 27/23/13 25/22/13
f 28/24/14 29/25/14 27/23/14
f 30/26/15 31/27/15 29/25/15
f 32/28/16 33/29/16 31/27/16
f 34/30/17 35/31/17 33/29/17
f 36/32/18 37/33/18 35/31/18
f 38/34/19 39/35/19 37/33/19
f 39/35/20 42/36/20 41/37/20
f 42/36/21 43/38/21 41/37/21
f 43/38/22 46/39/22 45/40/22
f 46/39/23 47/41/23 45/40/23
f 47/41/24 50/42/24 49/43/24
f 50/42/25 51/44/25 49/43/25
f 51/44/26 54/45/26 53/46/26
f 53/46/27 56/47/27 55/48/27
f 56/47/28 57/49/28 55/48/28
f 58/50/29 59/51/29 57/49/29
f 59/51/30 62/52/30 61/53/30
f 38/54/31 22/55/31 6/56/31
f 61/53/32 64/57/32 63/58/32
f 63/58/33 2/59/33 1/60/33
f 31/61/34 47/62/34 63/63/34
f 580/659/580 612/660/580 581/661/580
f 581/661/581 612/660/581 582/662/581
f 582/662/582 612/660/582 583/663/582
f 583/663/583 612/660/583 584/664/583
f 584/664/584 612/660/584 585/665/584
f 585/665/585 612/660/585 586/666/585
f 586/666/586 612/660/586 587/667/586
f 587/667/587 612/660/587 588/668/587
f 588/668/588 612/660/588 589/669/588
f 589/669/589 612/660/589 590/670/589
f 590/670/590 612/660/590 591/671/590
f 591/671/591 612/660/591 592/672/591
f 592/672/592 612/660/592 593/673/592
f 593/673/593 612/660/593 594/674/593
f 594/674/594 612/660/594 595/675/594
f 595/675/595 612/660/595 596/676/595
f 596/676/596 612/660/596 597/677/596
f 597/677/597 612/660/597 598/678/597
f 598/678/598 612/660/598 599/679/598
f 599/679/599 612/660/599 600/680/599
f 600/680/600 612/660/600 601/681/600
f 601/681/601 612/660/601 602/682/601
f 602/682/602 612/660/602 603/683/602
f 603/683/603 612/660/603 604/684/603
f 604/684/604 612/660/604 605/685/604
f 605/685/605 612/660/605 606/686/605
f 606/686/606 612/660/606 607/687/606
f 607/687/607 612/660/607 608/688/607
f 608/688/608 612/660/608 609/689/608
f 609/689/609 612/660/609 610/690/609
f 595/691/547 603/692/547 611/693/547
f 610/690/610 612/660/610 611/694/610
f 611/694/611 612/660/611 580/659/611
f 1/1/1 2/695/1 4/2/1
f 4/2/612 6/696/612 5/4/612
f 5/4/3 6/696/3 8/5/3
f 8/5/4 10/697/4 9/7/4
f 9/7/5 10/697/5 12/8/5
f 12/8/6 14/11/6 13/10/6
f 14/11/7 16/13/7 15/12/7
f 16/13/8 18/698/8 17/14/8
f 17/14/9 18/698/9 20/15/9
f 19/16/10 20/15/10 22/17/10
f 21/18/11 22/17/11 24/19/11
f 23/20/12 24/19/12 26/21/12
f 26/21/13 28/24/13 27/23/13
f 28/24/14 30/26/14 29/25/14
f 30/26/15 32/28/15 31/27/15
f 32/28/16 34/30/16 33/29/16
f 34/30/17 36/32/17 35/31/17
f 36/32/18 38/34/18 37/33/18
f 38/34/19 40/699/19 39/35/19
f 39/35/20 40/699/20 42/36/20
f 42/36/21 44/700/21 43/38/21
f 43/38/22 44/700/22 46/39/22
f 46/39/23 48/701/23 47/41/23
f 47/41/24 48/701/24 50/42/24
f 50/42/25 52/702/25 51/44/25
f 51/44/26 52/702/26 54/45/26
f 53/46/27 54/45/27 56/47/27
f 56/47/28 58/50/28 57/49/28
f 58/50/29 60/703/29 59/51/29
f 59/51/30 60/703/30 62/52/30
f 6/56/613 4/704/613 2/705/613
f 2/705/614 64/706/614 62/707/614
f 62/707/614 60/708/614 58/709/614
f 58/709/613 56/710/613 54/711/613
f 54/711/613 52/712/613 50/713/613
f 50/713/31 48/714/31 46/715/31
f 46/715/31 44/716/31 42/717/31
f 42/717/31 40/718/31 38/54/31
f 38/54/615 36/719/615 34/720/615
f 34/720/613 32/721/613 30/722/613
f 30/722/31 28/723/31 26/724/31
f 26/724/31 24/725/31 22/55/31
f 22/55/614 20/726/614 18/727/614
f 18/727/615 16/728/615 14/729/615
f 14/729/615 12/730/615 10/731/615
f 10/731/613 8/732/613 6/56/613
f 6/56/613 2/705/613 62/707/613
f 62/707/613 58/709/613 54/711/613
f 54/711/613 50/713/613 46/715/613
f 46/715/613 42/717/613 38/54/613
f 38/54/31 34/720/31 30/722/31
f 30/722/613 26/724/613 22/55/613
f 22/55/31 18/727/31 14/729/31
f 14/729/31 10/731/31 6/56/31
f 6/56/31 62/707/31 54/711/31
f 54/711/31 46/715/31 38/54/31
f 38/54/31 30/722/31 22/55/31
f 22/55/31 14/729/31 6/56/31
f 6/56/31 54/711/31 38/54/31
f 61/53/32 62/52/32 64/57/32
f 63/58/33 64/57/33 2/59/33
f 63/63/616 1/733/616 3/734/616
f 3/734/34 5/735/34 7/736/34
f 7/736/617 9/737/617 11/738/617
f 11/738/618 13/739/618 15/740/618
f 15/740/618 17/741/618 19/742/618
f 19/742/34 21/743/34 23/744/34
f 23/744/34 25/745/34 27/746/34
f 27/746/34 29/747/34 31/61/34
f 31/61/619 33/748/619 35/749/619
f 35/749/34 37/750/34 39/751/34
f 39/751/617 41/752/617 43/753/617
f 43/753/618 45/754/618 47/62/618
f 47/62/618 49/755/618 51/756/618
f 51/756/34 53/757/34 55/758/34
f 55/758/34 57/759/34 59/760/34
f 59/760/34 61/761/34 63/63/34
f 63/63/618 3/734/618 7/736/618
f 7/736/34 11/738/34 15/740/34
f 15/740/34 19/742/34 23/744/34
f 23/744/618 27/746/618 31/61/618
f 31/61/34 35/749/34 39/751/34
f 39/751/34 43/753/34 47/62/34
f 47/62/34 51/756/34 55/758/34
f 55/758/34 59/760/34 63/63/34
f 63/63/34 7/736/34 15/740/34
f 15/740/34 23/744/34 31/61/34
f 31/61/34 39/751/34 47/62/34
f 47/62/34 55/758/34 63/63/34
f 63/63/34 15/740/34 31/61/34
f 611/693/547 580/791/547 581/792/547
f 581/792/547 582/793/547 583/794/547
f 583/794/547 584/795/547 585/796/547
f 585/796/547 586/797/547 587/798/547
f 587/798/547 588/799/547 589/800/547
f 589/800/547 590/801/547 591/802/547
f 591/802/547 592/803/547 593/804/547
f 593/804/547 594/805/547 595/691/547
f 595/691/547 596/806/547 597/807/547
f 597/807/547 598/808/547 599/809/547
f 599/809/547 600/810/547 601/811/547
f 601/811/547 602/812/547 603/692/547
f 603/692/547 604/813/547 605/814/547
f 605/814/547 606/815/547 607/816/547
f 607/816/547 608/817/547 609/818/547
f 609/818/547 610/819/547 611/693/547
f 611/693/547 581/792/547 583/794/547
f 583/794/547 585/796/547 587/798/547
f 587/798/547 589/800/547 591/802/547
f 591/802/547 593/804/547 595/691/547
f 595/691/547 597/807/547 599/809/547
f 599/809/547 601/811/547 603/692/547
f 603/692/547 605/814/547 607/816/547
f 607/816/547 609/818/547 611/693/547
f 611/693/547 583/794/547 587/798/547
f 587/798/547 591/802/547 595/691/547
f 595/691/547 599/809/547 603/692/547
f 603/692/547 607/816/547 611/693/547
f 611/693/547 587/798/547 595/691/547
usemtl マテリアル
f 372/64/35 546/65/35 85/66/35
f 68/67/36 79/68/36 69/69/36
f 539/70/37 71/71/37 72/72/37
f 542/73/38 79/68/38 80/74/38
f 65/75/39 72/72/39 73/76/39
f 542/73/40 81/77/40 70/78/40
f 540/79/41 73/76/41 74/80/41
f 543/81/42 81/77/42 82/82/42
f 66/83/43 74/80/43 75/84/43
f 543/81/44 83/85/44 544/86/44
f 541/87/45 75/84/45 76/88/45
f 544/86/46 84/89/46 545/90/46
f 541/87/47 77/91/47 67/92/47
f 545/90/48 85/66/48 546/65/48
f 67/92/49 78/93/49 68/67/49
f 538/94/50 146/95/50 71/71/50
f 84/89/51 100/96/51 85/66/51
f 77/91/52 93/97/52 78/93/52
f 71/71/53 146/98/53 86/99/53
f 372/100/54 85/66/54 100/96/54
f 78/93/55 94/101/55 79/68/55
f 71/71/56 87/102/56 72/72/56
f 79/68/57 95/103/57 80/74/57
f 72/72/58 88/104/58 73/76/58
f 80/74/59 96/105/59 81/77/59
f 73/76/60 89/106/60 74/80/60
f 81/77/61 97/107/61 82/82/61
f 74/80/62 90/108/62 75/84/62
f 82/82/63 98/109/63 83/85/63
f 75/84/64 91/110/64 76/88/64
f 84/89/65 98/109/65 99/111/65
f 76/88/66 92/112/66 77/91/66
f 88/104/67 104/113/67 89/106/67
f 96/105/68 112/114/68 97/107/68
f 89/106/69 105/115/69 90/108/69
f 98/109/70 112/114/70 113/116/70
f 90/108/71 106/117/71 91/110/71
f 98/109/72 114/118/72 99/111/72
f 92/112/73 106/117/73 107/119/73
f 99/111/74 115/120/74 100/96/74
f 92/112/75 108/121/75 93/97/75
f 86/99/76 146/122/76 101/123/76
f 372/124/77 100/96/77 115/120/77
f 93/97/78 109/125/78 94/101/78
f 86/99/79 102/126/79 87/102/79
f 94/101/80 110/127/80 95/103/80
f 88/104/81 102/126/81 103/128/81
f 96/105/82 110/127/82 111/129/82
f 108/121/83 122/130/83 123/131/83
f 101/123/84 146/132/84 116/133/84
f 372/134/85 115/120/85 130/135/85
f 108/121/86 124/136/86 109/125/86
f 101/123/87 117/137/87 102/126/87
f 109/125/88 125/138/88 110/127/88
f 102/126/89 118/139/89 103/128/89
f 110/127/90 126/140/90 111/129/90
f 103/128/91 119/141/91 104/113/91
f 112/114/92 126/140/92 127/142/92
f 104/113/93 120/143/93 105/115/93
f 112/114/94 128/144/94 113/116/94
f 105/115/95 121/145/95 106/117/95
f 114/118/96 128/144/96 129/146/96
f 107/119/97 121/145/97 122/130/97
f 115/120/98 129/146/98 130/135/98
f 126/140/99 142/147/99 127/142/99
f 120/143/100 134/148/100 135/149/100
f 127/142/101 143/150/101 128/144/101
f 120/143/102 136/151/102 121/145/102
f 128/144/103 144/152/103 129/146/103
f 122/130/104 136/151/104 137/153/104
f 129/146/105 145/154/105 130/135/105
f 123/131/106 137/153/106 138/155/106
f 116/133/107 146/156/107 131/157/107
f 372/158/108 130/135/108 145/154/108
f 123/131/109 139/159/109 124/136/109
f 116/133/110 132/160/110 117/137/110
f 124/136/111 140/161/111 125/138/111
f 117/137/112 133/162/112 118/139/112
f 125/138/113 141/163/113 126/140/113
f 118/139/114 134/148/114 119/141/114
f 372/164/115 145/154/115 161/165/115
f 138/155/116 155/166/116 139/159/116
f 131/157/117 148/167/117 132/160/117
f 139/159/118 156/168/118 140/161/118
f 132/160/119 149/169/119 133/162/119
f 141/163/120 156/168/120 157/170/120
f 133/162/121 150/171/121 134/148/121
f 141/163/122 158/172/122 142/147/122
f 135/149/123 150/171/123 151/173/123
f 143/150/124 158/172/124 159/174/124
f 135/149/125 152/175/125 136/151/125
f 143/150/126 160/176/126 144/152/126
f 137/153/127 152/175/127 153/177/127
f 145/154/128 160/176/128 161/165/128
f 138/155/129 153/177/129 154/178/129
f 131/157/130 146/179/130 147/180/130
f 159/174/131 173/181/131 174/182/131
f 151/173/132 167/183/132 152/175/132
f 159/174/133 175/184/133 160/176/133
f 153/177/134 167/183/134 168/185/134
f 161/165/135 175/184/135 176/186/135
f 154/178/136 168/185/136 169/187/136
f 147/180/137 146/188/137 162/189/137
f 372/190/138 161/165/138 176/186/138
f 154/178/139 170/191/139 155/166/139
f 147/180/140 163/192/140 148/167/140
f 155/166/141 171/193/141 156/168/141
f 149/169/142 163/192/142 164/194/142
f 157/170/143 171/193/143 172/195/143
f 149/169/144 165/196/144 150/171/144
f 157/170/145 173/181/145 158/172/145
f 151/173/146 165/196/146 166/197/146
f 162/189/147 178/198/147 163/192/147
f 170/191/148 186/199/148 171/193/148
f 163/192/149 179/200/149 164/194/149
f 172/195/150 186/199/150 187/201/150
f 164/194/151 180/202/151 165/196/151
f 172/195/152 188/203/152 173/181/152
f 166/197/153 180/202/153 181/204/153
f 174/182/154 188/203/154 189/205/154
f 166/197/155 182/206/155 167/183/155
f 174/182/156 190/207/156 175/184/156
f 168/185/157 182/206/157 183/208/157
f 176/186/158 190/207/158 191/209/158
f 169/187/159 183/208/159 184/210/159
f 162/189/160 146/211/160 177/212/160
f 372/213/161 176/186/161 191/209/161
f 169/187/162 185/214/162 170/191/162
f 181/204/163 197/215/163 182/206/163
f 189/205/164 205/216/164 190/207/164
f 183/208/165 197/215/165 198/217/165
f 190/207/166 206/218/166 191/209/166
f 184/210/167 198/217/167 199/219/167
f 177/212/168 146/220/168 192/221/168
f 372/222/169 191/209/169 206/218/169
f 184/210/170 200/223/170 185/214/170
f 177/212/171 193/224/171 178/198/171
f 185/214/172 201/225/172 186/199/172
f 179/200/173 193/224/173 194/226/173
f 187/201/174 201/225/174 202/227/174
f 179/200/175 195/228/175 180/202/175
f 187/201/176 203/229/176 188/203/176
f 181/204/177 195/228/177 196/230/177
f 188/203/178 204/231/178 189/205/178
f 200/223/179 216/232/179 201/225/179
f 193/224/180 209/233/180 194/226/180
f 202/227/181 216/232/181 217/234/181
f 194/226/182 210/235/182 195/228/182
f 202/227/183 218/236/183 203/229/183
f 196/230/184 210/235/184 211/237/184
f 204/231/185 218/236/185 219/238/185
f 196/230/186 212/239/186 197/215/186
f 205/216/187 219/238/187 220/240/187
f 198/217/188 212/239/188 213/241/188
f 206/218/189 220/240/189 221/242/189
f 199/219/190 213/241/190 214/243/190
f 192/221/191 146/244/191 207/245/191
f 372/246/192 206/218/192 221/242/192
f 199/219/193 215/247/193 200/223/193
f 192/221/194 208/248/194 193/224/194
f 220/240/195 234/249/195 235/250/195
f 213/241/196 227/251/196 228/252/196
f 220/240/197 236/253/197 221/242/197
f 214/243/198 228/252/198 229/254/198
f 207/245/199 146/255/199 222/256/199
f 372/257/200 221/242/200 236/253/200
f 214/243/201 230/258/201 215/247/201
f 207/245/202 223/259/202 208/248/202
f 215/247/203 231/260/203 216/232/203
f 208/248/204 224/261/204 209/233/204
f 217/234/205 231/260/205 232/262/205
f 209/233/206 225/263/206 210/235/206
f 217/234/207 233/264/207 218/236/207
f 211/237/208 225/263/208 226/265/208
f 219/238/209 233/264/209 234/249/209
f 211/237/210 227/251/210 212/239/210
f 224/261/211 238/266/211 239/267/211
f 232/262/212 246/268/212 247/269/212
f 224/261/213 240/270/213 225/263/213
f 232/262/214 248/271/214 233/264/214
f 226/265/215 240/270/215 241/272/215
f 234/249/216 248/271/216 249/273/216
f 226/265/217 242/274/217 227/251/217
f 234/249/218 250/275/218 235/250/218
f 228/252/219 242/274/219 243/276/219
f 236/253/220 250/275/220 251/277/220
f 229/254/221 243/276/221 244/278/221
f 222/256/222 146/279/222 237/280/222
f 372/281/223 236/253/223 251/277/223
f 229/254/224 245/282/224 230/258/224
f 222/256/225 238/266/225 223/259/225
f 230/258/226 246/268/226 231/260/226
f 243/276/227 257/283/227 258/284/227
f 250/275/228 266/285/228 251/277/228
f 244/278/229 258/284/229 259/286/229
f 237/280/230 146/287/230 252/288/230
f 372/289/231 251/277/231 266/285/231
f 244/278/232 260/290/232 245/282/232
f 238/266/233 252/288/233 253/291/233
f 245/282/234 261/292/234 246/268/234
f 238/266/235 254/293/235 239/267/235
f 247/269/236 261/292/236 262/294/236
f 239/267/237 255/295/237 240/270/237
f 247/269/238 263/296/238 248/271/238
f 241/272/239 255/295/239 256/297/239
f 249/273/240 263/296/240 264/298/240
f 241/272/241 257/283/241 242/274/241
f 249/273/242 265/299/242 250/275/242
f 262/294/243 276/300/243 277/301/243
f 254/293/244 270/302/244 255/295/244
f 262/294/245 278/303/245 263/296/245
f 256/297/246 270/302/246 271/304/246
f 264/298/247 278/303/247 279/305/247
f 256/297/248 272/306/248 257/283/248
f 265/299/249 279/305/249 280/307/249
f 258/284/250 272/306/250 273/308/250
f 265/299/251 281/309/251 266/285/251
f 259/286/252 273/308/252 274/310/252
f 252/288/253 146/311/253 267/312/253
f 372/313/254 266/285/254 281/309/254
f 259/286/255 275/314/255 260/290/255
f 252/288/256 268/315/256 253/291/256
f 260/290/257 276/300/257 261/292/257
f 253/291/258 269/316/258 254/293/258
f 280/307/259 296/317/259 281/309/259
f 274/310/260 288/318/260 289/319/260
f 267/312/261 146/320/261 282/321/261
f 372/322/262 281/309/262 296/317/262
f 274/310/263 290/323/263 275/314/263
f 267/312/264 283/324/264 268/315/264
f 275/314/265 291/325/265 276/300/265
f 268/315/266 284/326/266 269/316/266
f 277/301/267 291/325/267 292/327/267
f 269/316/268 285/328/268 270/302/268
f 277/301/269 293/329/269 278/303/269
f 271/304/270 285/328/270 286/330/270
f 279/305/271 293/329/271 294/331/271
f 271/304/272 287/332/272 272/306/272
f 279/305/273 295/333/273 280/307/273
f 273/308/274 287/332/274 288/318/274
f 292/327/275 308/334/275 293/329/275
f 286/330/276 300/335/276 301/336/276
f 294/331/277 308/334/277 309/337/277
f 286/330/278 302/338/278 287/332/278
f 294/331/279 310/339/279 295/333/279
f 288/318/280 302/338/280 303/340/280
f 295/333/281 311/341/281 296/317/281
f 289/319/282 303/340/282 304/342/282
f 282/321/283 146/343/283 297/344/283
f 372/345/284 296/317/284 311/341/284
f 289/319/285 305/346/285 290/323/285
f 282/321/286 298/347/286 283/324/286
f 290/323/287 306/348/287 291/325/287
f 284/326/288 298/347/288 299/349/288
f 292/327/289 306/348/289 307/350/289
f 284/326/290 300/335/290 285/328/290
f 297/344/291 146/351/291 312/352/291
f 372/353/292 311/341/292 326/354/292
f 304/342/293 320/355/293 305/346/293
f 297/344/294 313/356/294 298/347/294
f 305/346/295 321/357/295 306/348/295
f 298/347/296 314/358/296 299/349/296
f 307/350/297 321/357/297 322/359/297
f 299/349/298 315/360/298 300/335/298
f 307/350/299 323/361/299 308/334/299
f 301/336/300 315/360/300 316/362/300
f 309/337/301 323/361/301 324/363/301
f 301/336/302 317/364/302 302/338/302
f 310/339/303 324/363/303 325/365/303
f 303/340/304 317/364/304 318/366/304
f 311/341/305 325/365/305 326/354/305
f 304/342/306 318/366/306 319/367/306
f 316/362/307 330/368/307 331/369/307
f 324/363/308 338/370/308 339/371/308
f 316/362/309 332/372/309 317/364/309
f 325/365/310 339/371/310 340/373/310
f 318/366/311 332/372/311 333/374/311
f 325/365/312 341/375/312 326/354/312
f 319/367/313 333/374/313 334/376/313
f 312/352/314 146/377/314 327/378/314
f 372/379/315 326/354/315 341/375/315
f 319/367/316 335/380/316 320/355/316
f 313/356/317 327/378/317 328/381/317
f 320/355/318 336/382/318 321/357/318
f 313/356/319 329/383/319 314/358/319
f 322/359/320 336/382/320 337/384/320
f 314/358/321 330/368/321 315/360/321
f 322/359/322 338/370/322 323/361/322
f 334/376/323 350/385/323 335/380/323
f 327/378/324 343/386/324 328/381/324
f 335/380/325 351/387/325 336/382/325
f 328/381/326 344/388/326 329/383/326
f 337/384/327 351/387/327 352/389/327
f 329/383/328 345/390/328 330/368/328
f 337/384/329 353/391/329 338/370/329
f 330/368/330 346/392/330 331/369/330
f 339/371/331 353/391/331 354/393/331
f 331/369/332 347/394/332 332/372/332
f 339/371/333 355/395/333 340/373/333
f 333/374/334 347/394/334 348/396/334
f 340/373/335 356/397/335 341/375/335
f 334/376/336 348/396/336 349/398/336
f 327/378/337 146/399/337 342/400/337
f 372/401/338 341/375/338 356/397/338
f 354/393/339 368/402/339 369/403/339
f 346/392/340 362/404/340 347/394/340
f 354/393/341 370/405/341 355/395/341
f 348/396/342 362/404/342 363/406/342
f 355/395/343 371/407/343 356/397/343
f 349/398/344 363/406/344 364/408/344
f 342/400/345 146/409/345 357/410/345
f 372/411/346 356/397/346 371/407/346
f 349/398/347 365/412/347 350/385/347
f 342/400/348 358/413/348 343/386/348
f 350/385/349 366/414/349 351/387/349
f 344/388/350 358/413/350 359/415/350
f 352/389/351 366/414/351 367/416/351
f 344/388/352 360/417/352 345/390/352
f 352/389/353 368/402/353 353/391/353
f 346/392/354 360/417/354 361/418/354
f 357/410/355 374/419/355 358/413/355
f 365/412/356 382/420/356 366/414/356
f 358/413/357 375/421/357 359/415/357
f 367/416/358 382/420/358 383/422/358
f 359/415/359 376/423/359 360/417/359
f 367/416/360 384/424/360 368/402/360
f 360/417/361 377/425/361 361/418/361
f 369/403/362 384/424/362 385/426/362
f 361/418/363 378/427/363 362/404/363
f 369/403/364 386/428/364 370/405/364
f 363/406/365 378/427/365 379/429/365
f 370/405/366 387/430/366 371/407/366
f 364/408/367 379/429/367 380/431/367
f 357/410/368 146/432/368 373/433/368
f 372/434/369 371/407/369 387/430/369
f 364/408/370 381/435/370 365/412/370
f 377/425/371 393/436/371 378/427/371
f 385/426/372 401/437/372 386/428/372
f 379/429/373 393/436/373 394/438/373
f 387/430/374 401/437/374 402/439/374
f 380/431/375 394/438/375 395/440/375
f 373/433/376 146/441/376 388/442/376
f 372/443/377 387/430/377 402/439/377
f 380/431/378 396/444/378 381/435/378
f 373/433/379 389/445/379 374/419/379
f 381/435/380 397/446/380 382/420/380
f 375/421/381 389/445/381 390/447/381
f 383/422/382 397/446/382 398/448/382
f 375/421/383 391/449/383 376/423/383
f 383/422/384 399/450/384 384/424/384
f 377/425/385 391/449/385 392/451/385
f 384/424/386 400/452/386 385/426/386
f 396/444/387 412/453/387 397/446/387
f 390/447/388 404/454/388 405/455/388
f 398/448/389 412/453/389 413/456/389
f 390/447/390 406/457/390 391/449/390
f 398/448/391 414/458/391 399/450/391
f 392/451/392 406/457/392 407/459/392
f 400/452/393 414/458/393 415/460/393
f 392/451/394 408/461/394 393/436/394
f 400/452/395 416/462/395 401/437/395
f 394/438/396 408/461/396 409/463/396
f 402/439/397 416/462/397 417/464/397
f 395/440/398 409/463/398 410/465/398
f 388/442/399 146/466/399 403/467/399
f 372/468/400 402/439/400 417/464/400
f 395/440/401 411/469/401 396/444/401
f 388/442/402 404/454/402 389/445/402
f 415/460/403 431/470/403 416/462/403
f 409/463/404 423/471/404 424/472/404
f 416/462/405 432/473/405 417/464/405
f 410/465/406 424/472/406 425/474/406
f 403/467/407 146/475/407 418/476/407
f 372/477/408 417/464/408 432/473/408
f 410/465/409 426/478/409 411/469/409
f 404/454/410 418/476/410 419/479/410
f 411/469/411 427/480/411 412/453/411
f 405/455/412 419/479/412 420/481/412
f 413/456/413 427/480/413 428/482/413
f 405/455/414 421/483/414 406/457/414
f 413/456/415 429/484/415 414/458/415
f 407/459/416 421/483/416 422/485/416
f 415/460/417 429/484/417 430/486/417
f 407/459/418 423/471/418 408/461/418
f 428/487/419 442/488/419 443/489/419
f 420/490/420 436/491/420 421/492/420
f 428/487/421 444/493/421 429/494/421
f 422/495/422 436/491/422 437/496/422
f 430/497/423 444/493/423 445/498/423
f 422/495/424 438/499/424 423/500/424
f 430/497/425 446/501/425 431/502/425
f 424/503/426 438/499/426 439/504/426
f 431/502/427 447/505/427 432/506/427
f 425/507/428 439/504/428 440/508/428
f 418/509/429 146/510/429 433/511/429
f 372/512/430 432/506/430 447/505/430
f 425/507/431 441/513/431 426/514/431
f 418/509/432 434/515/432 419/516/432
f 426/514/433 442/488/433 427/517/433
f 420/490/434 434/515/434 435/518/434
f 447/505/435 461/519/435 462/520/435
f 440/508/436 454/521/436 455/522/436
f 433/511/437 146/523/437 448/524/437
f 372/525/438 447/505/438 462/520/438
f 440/508/439 456/526/439 441/513/439
f 433/511/440 449/527/440 434/515/440
f 441/513/441 457/528/441 442/488/441
f 434/515/442 450/529/442 435/518/442
f 443/489/443 457/528/443 458/530/443
f 435/518/444 451/531/444 436/491/444
f 443/489/445 459/532/445 444/493/445
f 437/496/446 451/531/446 452/533/446
f 445/498/447 459/532/447 460/534/447
f 437/496/448 453/535/448 438/499/448
f 446/501/449 460/534/449 461/519/449
f 439/504/450 453/535/450 454/521/450
f 450/529/451 466/536/451 451/531/451
f 458/530/452 474/537/452 459/532/452
f 452/533/453 466/536/453 467/538/453
f 460/534/454 474/537/454 475/539/454
f 452/533/455 468/540/455 453/535/455
f 460/534/456 476/541/456 461/519/456
f 454/521/457 468/540/457 469/542/457
f 462/520/458 476/541/458 477/543/458
f 455/522/459 469/542/459 470/544/459
f 448/524/460 146/545/460 463/546/460
f 372/547/461 462/520/461 477/543/461
f 455/522/462 471/548/462 456/526/462
f 448/524/463 464/549/463 449/527/463
f 456/526/464 472/550/464 457/528/464
f 450/529/465 464/549/465 465/551/465
f 458/530/466 472/550/466 473/552/466
f 470/544/467 484/553/467 485/554/467
f 463/546/468 146/555/468 478/556/468
f 372/557/469 477/543/469 492/558/469
f 470/544/470 486/559/470 471/548/470
f 463/546/471 479/560/471 464/549/471
f 471/548/472 487/561/472 472/550/472
f 465/551/473 479/560/473 480/562/473
f 473/552/474 487/561/474 488/563/474
f 465/551/475 481/564/475 466/536/475
f 473/552/476 489/565/476 474/537/476
f 467/538/477 481/564/477 482/566/477
f 475/539/478 489/565/478 490/567/478
f 467/538/479 483/568/479 468/540/479
f 475/539/480 491/569/480 476/541/480
f 469/542/481 483/568/481 484/553/481
f 476/541/482 492/558/482 477/543/482
f 488/563/483 504/570/483 489/565/483
f 482/566/484 496/571/484 497/572/484
f 490/567/485 504/570/485 505/573/485
f 482/566/486 498/574/486 483/568/486
f 490/567/487 506/575/487 491/569/487
f 484/553/488 498/574/488 499/576/488
f 491/569/489 507/577/489 492/558/489
f 485/554/490 499/576/490 500/578/490
f 478/556/491 146/579/491 493/580/491
f 372/581/492 492/558/492 507/577/492
f 485/554/493 501/582/493 486/559/493
f 478/556/494 494/583/494 479/560/494
f 486/559/495 502/584/495 487/561/495
f 480/562/496 494/583/496 495/585/496
f 488/563/497 502/584/497 503/586/497
f 480/562/498 496/571/498 481/564/498
f 493/580/499 146/587/499 508/588/499
f 372/589/500 507/577/500 522/590/500
f 500/578/501 516/591/501 501/582/501
f 494/583/502 508/588/502 509/592/502
f 501/582/503 517/593/503 502/584/503
f 494/583/504 510/594/504 495/585/504
f 503/586/505 517/593/505 518/595/505
f 495/585/506 511/596/506 496/571/506
f 503/586/507 519/597/507 504/570/507
f 497/572/508 511/596/508 512/598/508
f 505/573/509 519/597/509 520/599/509
f 497/572/510 513/600/510 498/574/510
f 505/573/511 521/601/511 506/575/511
f 499/576/512 513/600/512 514/602/512
f 506/575/513 522/590/513 507/577/513
f 500/578/514 514/602/514 515/603/514
f 511/596/515 527/604/515 512/598/515
f 520/599/516 534/605/516 535/606/516
f 512/598/517 528/607/517 513/600/517
f 520/599/518 536/608/518 521/601/518
f 514/602/519 528/607/519 529/609/519
f 521/601/520 537/610/520 522/590/520
f 515/603/521 529/609/521 530/611/521
f 508/588/522 146/612/522 523/613/522
f 372/614/523 522/590/523 537/610/523
f 515/603/524 531/615/524 516/591/524
f 509/592/525 523/613/525 524/616/525
f 516/591/526 532/617/526 517/593/526
f 510/594/527 524/616/527 525/618/527
f 518/595/528 532/617/528 533/619/528
f 510/594/529 526/620/529 511/596/529
f 518/595/530 534/605/530 519/597/530
f 530/611/531 69/69/531 531/615/531
f 523/613/532 539/70/532 524/616/532
f 531/615/533 542/73/533 532/617/533
f 525/618/534 539/70/534 65/75/534
f 532/617/535 70/78/535 533/619/535
f 526/620/536 65/75/536 540/79/536
f 533/619/537 543/81/537 534/605/537
f 527/604/538 540/79/538 66/83/538
f 535/606/539 543/81/539 544/86/539
f 528/607/540 66/83/540 541/87/540
f 536/608/541 544/86/541 545/90/541
f 529/609/542 541/87/542 67/92/542
f 536/608/543 546/65/543 537/610/543
f 530/611/544 67/92/544 68/67/544
f 523/613/545 146/621/545 538/94/545
f 372/622/546 537/610/546 546/65/546
f 566/623/547 558/624/547 550/625/547
f 547/626/548 549/627/548 548/628/548
f 550/629/549 549/627/549 547/626/549
f 551/630/550 549/627/550 550/629/550
f 552/631/551 549/627/551 551/630/551
f 553/632/552 549/627/552 552/631/552
f 554/633/553 549/627/553 553/632/553
f 555/634/554 549/627/554 554/633/554
f 556/635/555 549/627/555 555/634/555
f 557/636/556 549/627/556 556/635/556
f 558/637/557 549/627/557 557/636/557
f 559/638/558 549/627/558 558/637/558
f 560/639/559 549/627/559 559/638/559
f 561/640/560 549/627/560 560/639/560
f 562/641/561 549/627/561 561/640/561
f 563/642/562 549/627/562 562/641/562
f 564/643/563 549/627/563 563/642/563
f 565/644/564 549/627/564 564/643/564
f 566/645/565 549/627/565 565/644/565
f 567/646/566 549/627/566 566/645/566
f 568/647/567 549/627/567 567/646/567
f 569/648/568 549/627/568 568/647/568
f 570/649/569 549/627/569 569/648/569
f 571/650/570 549/627/570 570/649/570
f 572/651/571 549/627/571 571/650/571
f 573/652/572 549/627/572 572/651/572
f 574/653/573 549/627/573 573/652/573
f 575/654/574 549/627/574 574/653/574
f 576/655/575 549/627/575 575/654/575
f 577/656/576 549/627/576 576/655/576
f 578/657/577 549/627/577 577/656/577
f 579/658/578 549/627/578 578/657/578
f 548/628/579 549/627/579 579/658/579
f 68/67/620 78/93/620 79/68/620
f 539/70/37 538/94/37 71/71/37
f 542/73/38 69/69/38 79/68/38
f 65/75/39 539/70/39 72/72/39
f 542/73/40 80/74/40 81/77/40
f 540/79/41 65/75/41 73/76/41
f 543/81/42 70/78/42 81/77/42
f 66/83/43 540/79/43 74/80/43
f 543/81/44 82/82/44 83/85/44
f 541/87/45 66/83/45 75/84/45
f 544/86/46 83/85/46 84/89/46
f 541/87/47 76/88/47 77/91/47
f 545/90/48 84/89/48 85/66/48
f 67/92/49 77/91/49 78/93/49
f 84/89/51 99/111/51 100/96/51
f 77/91/621 92/112/621 93/97/621
f 78/93/55 93/97/55 94/101/55
f 71/71/56 86/99/56 87/102/56
f 79/68/57 94/101/57 95/103/57
f 72/72/58 87/102/58 88/104/58
f 80/74/59 95/103/59 96/105/59
f 73/76/60 88/104/60 89/106/60
f 81/77/61 96/105/61 97/107/61
f 74/80/62 89/106/62 90/108/62
f 82/82/63 97/107/63 98/109/63
f 75/84/64 90/108/64 91/110/64
f 84/89/65 83/85/65 98/109/65
f 76/88/66 91/110/66 92/112/66
f 88/104/67 103/128/67 104/113/67
f 96/105/68 111/129/68 112/114/68
f 89/106/69 104/113/69 105/115/69
f 98/109/70 97/107/70 112/114/70
f 90/108/71 105/115/71 106/117/71
f 98/109/622 113/116/622 114/118/622
f 92/112/73 91/110/73 106/117/73
f 99/111/74 114/118/74 115/120/74
f 92/112/75 107/119/75 108/121/75
f 93/97/78 108/121/78 109/125/78
f 86/99/79 101/123/79 102/126/79
f 94/101/80 109/125/80 110/127/80
f 88/104/623 87/102/623 102/126/623
f 96/105/82 95/103/82 110/127/82
f 108/121/624 107/119/624 122/130/624
f 108/121/625 123/131/625 124/136/625
f 101/123/626 116/133/626 117/137/626
f 109/125/88 124/136/88 125/138/88
f 102/126/89 117/137/89 118/139/89
f 110/127/90 125/138/90 126/140/90
f 103/128/91 118/139/91 119/141/91
f 112/114/92 111/129/92 126/140/92
f 104/113/93 119/141/93 120/143/93
f 112/114/94 127/142/94 128/144/94
f 105/115/95 120/143/95 121/145/95
f 114/118/96 113/116/96 128/144/96
f 107/119/97 106/117/97 121/145/97
f 115/120/98 114/118/98 129/146/98
f 126/140/99 141/163/99 142/147/99
f 120/143/100 119/141/100 134/148/100
f 127/142/101 142/147/101 143/150/101
f 120/143/102 135/149/102 136/151/102
f 128/144/103 143/150/103 144/152/103
f 122/130/104 121/145/104 136/151/104
f 129/146/105 144/152/105 145/154/105
f 123/131/106 122/130/106 137/153/106
f 123/131/109 138/155/109 139/159/109
f 116/133/110 131/157/110 132/160/110
f 124/136/111 139/159/111 140/161/111
f 117/137/112 132/160/112 133/162/112
f 125/138/113 140/161/113 141/163/113
f 118/139/114 133/162/114 134/148/114
f 138/155/116 154/178/116 155/166/116
f 131/157/117 147/180/117 148/167/117
f 139/159/118 155/166/118 156/168/118
f 132/160/119 148/167/119 149/169/119
f 141/163/120 140/161/120 156/168/120
f 133/162/121 149/169/121 150/171/121
f 141/163/122 157/170/122 158/172/122
f 135/149/123 134/148/123 150/171/123
f 143/150/124 142/147/124 158/172/124
f 135/149/125 151/173/125 152/175/125
f 143/150/126 159/174/126 160/176/126
f 137/153/127 136/151/127 152/175/127
f 145/154/128 144/152/128 160/176/128
f 138/155/129 137/153/129 153/177/129
f 159/174/131 158/172/131 173/181/131
f 151/173/132 166/197/132 167/183/132
f 159/174/133 174/182/133 175/184/133
f 153/177/134 152/175/134 167/183/134
f 161/165/135 160/176/135 175/184/135
f 154/178/136 153/177/136 168/185/136
f 154/178/139 169/187/139 170/191/139
f 147/180/627 162/189/627 163/192/627
f 155/166/141 170/191/141 171/193/141
f 149/169/142 148/167/142 163/192/142
f 157/170/143 156/168/143 171/193/143
f 149/169/144 164/194/144 165/196/144
f 157/170/145 172/195/145 173/181/145
f 151/173/146 150/171/146 165/196/146
f 162/189/147 177/212/147 178/198/147
f 170/191/148 185/214/148 186/199/148
f 163/192/149 178/198/149 179/200/149
f 172/195/150 171/193/150 186/199/150
f 164/194/151 179/200/151 180/202/151
f 172/195/152 187/201/152 188/203/152
f 166/197/153 165/196/153 180/202/153
f 174/182/154 173/181/154 188/203/154
f 166/197/155 181/204/155 182/206/155
f 174/182/156 189/205/156 190/207/156
f 168/185/157 167/183/157 182/206/157
f 176/186/158 175/184/158 190/207/158
f 169/187/159 168/185/159 183/208/159
f 169/187/162 184/210/162 185/214/162
f 181/204/163 196/230/163 197/215/163
f 189/205/164 204/231/164 205/216/164
f 183/208/165 182/206/165 197/215/165
f 190/207/166 205/216/166 206/218/166
f 184/210/167 183/208/167 198/217/167
f 184/210/170 199/219/170 200/223/170
f 177/212/628 192/221/628 193/224/628
f 185/214/172 200/223/172 201/225/172
f 179/200/173 178/198/173 193/224/173
f 187/201/174 186/199/174 201/225/174
f 179/200/175 194/226/175 195/228/175
f 187/201/176 202/227/176 203/229/176
f 181/204/177 180/202/177 195/228/177
f 188/203/178 203/229/178 204/231/178
f 200/223/179 215/247/179 216/232/179
f 193/224/180 208/248/180 209/233/180
f 202/227/181 201/225/181 216/232/181
f 194/226/182 209/233/182 210/235/182
f 202/227/183 217/234/183 218/236/183
f 196/230/184 195/228/184 210/235/184
f 204/231/185 203/229/185 218/236/185
f 196/230/186 211/237/186 212/239/186
f 205/216/187 204/231/187 219/238/187
f 198/217/188 197/215/188 212/239/188
f 206/218/189 205/216/189 220/240/189
f 199/219/190 198/217/190 213/241/190
f 199/219/193 214/243/193 215/247/193
f 192/221/629 207/245/629 208/248/629
f 220/240/630 219/238/630 234/249/630
f 213/241/196 212/239/196 227/251/196
f 220/240/197 235/250/197 236/253/197
f 214/243/198 213/241/198 228/252/198
f 214/243/201 229/254/201 230/258/201
f 207/245/202 222/256/202 223/259/202
f 215/247/203 230/258/203 231/260/203
f 208/248/204 223/259/204 224/261/204
f 217/234/205 216/232/205 231/260/205
f 209/233/206 224/261/206 225/263/206
f 217/234/207 232/262/207 233/264/207
f 211/237/208 210/235/208 225/263/208
f 219/238/209 218/236/209 233/264/209
f 211/237/210 226/265/210 227/251/210
f 224/261/211 223/259/211 238/266/211
f 232/262/212 231/260/212 246/268/212
f 224/261/213 239/267/213 240/270/213
f 232/262/214 247/269/214 248/271/214
f 226/265/215 225/263/215 240/270/215
f 234/249/216 233/264/216 248/271/216
f 226/265/217 241/272/217 242/274/217
f 234/249/218 249/273/218 250/275/218
f 228/252/219 227/251/219 242/274/219
f 236/253/220 235/250/220 250/275/220
f 229/254/221 228/252/221 243/276/221
f 229/254/224 244/278/224 245/282/224
f 222/256/225 237/280/225 238/266/225
f 230/258/226 245/282/226 246/268/226
f 243/276/227 242/274/227 257/283/227
f 250/275/228 265/299/228 266/285/228
f 244/278/229 243/276/229 258/284/229
f 244/278/232 259/286/232 260/290/232
f 238/266/631 237/280/631 252/288/631
f 245/282/234 260/290/234 261/292/234
f 238/266/235 253/291/235 254/293/235
f 247/269/236 246/268/236 261/292/236
f 239/267/237 254/293/237 255/295/237
f 247/269/238 262/294/238 263/296/238
f 241/272/239 240/270/239 255/295/239
f 249/273/240 248/271/240 263/296/240
f 241/272/241 256/297/241 257/283/241
f 249/273/242 264/298/242 265/299/242
f 262/294/243 261/292/243 276/300/243
f 254/293/244 269/316/244 270/302/244
f 262/294/245 277/301/245 278/303/245
f 256/297/246 255/295/246 270/302/246
f 264/298/247 263/296/247 278/303/247
f 256/297/248 271/304/248 272/306/248
f 265/299/632 264/298/632 279/305/632
f 258/284/250 257/283/250 272/306/250
f 265/299/251 280/307/251 281/309/251
f 259/286/252 258/284/252 273/308/252
f 259/286/255 274/310/255 275/314/255
f 252/288/633 267/312/633 268/315/633
f 260/290/257 275/314/257 276/300/257
f 253/291/634 268/315/634 269/316/634
f 280/307/259 295/333/259 296/317/259
f 274/310/260 273/308/260 288/318/260
f 274/310/263 289/319/263 290/323/263
f 267/312/264 282/321/264 283/324/264
f 275/314/265 290/323/265 291/325/265
f 268/315/266 283/324/266 284/326/266
f 277/301/267 276/300/267 291/325/267
f 269/316/268 284/326/268 285/328/268
f 277/301/269 292/327/269 293/329/269
f 271/304/270 270/302/270 285/328/270
f 279/305/271 278/303/271 293/329/271
f 271/304/272 286/330/272 287/332/272
f 279/305/273 294/331/273 295/333/273
f 273/308/274 272/306/274 287/332/274
f 292/327/275 307/350/275 308/334/275
f 286/330/276 285/328/276 300/335/276
f 294/331/277 293/329/277 308/334/277
f 286/330/278 301/336/278 302/338/278
f 294/331/279 309/337/279 310/339/279
f 288/318/280 287/332/280 302/338/280
f 295/333/281 310/339/281 311/341/281
f 289/319/282 288/318/282 303/340/282
f 289/319/285 304/342/285 305/346/285
f 282/321/286 297/344/286 298/347/286
f 290/323/287 305/346/287 306/348/287
f 284/326/288 283/324/288 298/347/288
f 292/327/289 291/325/289 306/348/289
f 284/326/290 299/349/290 300/335/290
f 304/342/293 319/367/293 320/355/293
f 297/344/294 312/352/294 313/356/294
f 305/346/295 320/355/295 321/357/295
f 298/347/296 313/356/296 314/358/296
f 307/350/297 306/348/297 321/357/297
f 299/349/298 314/358/298 315/360/298
f 307/350/299 322/359/299 323/361/299
f 301/336/300 300/335/300 315/360/300
f 309/337/301 308/334/301 323/361/301
f 301/336/302 316/362/302 317/364/302
f 310/339/303 309/337/303 324/363/303
f 303/340/304 302/338/304 317/364/304
f 311/341/305 310/339/305 325/365/305
f 304/342/306 303/340/306 318/366/306
f 316/362/307 315/360/307 330/368/307
f 324/363/308 323/361/308 338/370/308
f 316/362/309 331/369/309 332/372/309
f 325/365/310 324/363/310 339/371/310
f 318/366/311 317/364/311 332/372/311
f 325/365/312 340/373/312 341/375/312
f 319/367/313 318/366/313 333/374/313
f 319/367/316 334/376/316 335/380/316
f 313/356/317 312/352/317 327/378/317
f 320/355/318 335/380/318 336/382/318
f 313/356/319 328/381/319 329/383/319
f 322/359/320 321/357/320 336/382/320
f 314/358/321 329/383/321 330/368/321
f 322/359/322 337/384/322 338/370/322
f 334/376/323 349/398/323 350/385/323
f 327/378/635 342/400/635 343/386/635
f 335/380/325 350/385/325 351/387/325
f 328/381/636 343/386/636 344/388/636
f 337/384/327 336/382/327 351/387/327
f 329/383/328 344/388/328 345/390/328
f 337/384/329 352/389/329 353/391/329
f 330/368/330 345/390/330 346/392/330
f 339/371/331 338/370/331 353/391/331
f 331/369/332 346/392/332 347/394/332
f 339/371/333 354/393/333 355/395/333
f 333/374/334 332/372/334 347/394/334
f 340/373/335 355/395/335 356/397/335
f 334/376/336 333/374/336 348/396/336
f 354/393/339 353/391/339 368/402/339
f 346/392/340 361/418/340 362/404/340
f 354/393/341 369/403/341 370/405/341
f 348/396/342 347/394/342 362/404/342
f 355/395/637 370/405/637 371/407/637
f 349/398/344 348/396/344 363/406/344
f 349/398/347 364/408/347 365/412/347
f 342/400/638 357/410/638 358/413/638
f 350/385/349 365/412/349 366/414/349
f 344/388/350 343/386/350 358/413/350
f 352/389/351 351/387/351 366/414/351
f 344/388/352 359/415/352 360/417/352
f 352/389/353 367/416/353 368/402/353
f 346/392/354 345/390/354 360/417/354
f 357/410/355 373/433/355 374/419/355
f 365/412/356 381/435/356 382/420/356
f 358/413/357 374/419/357 375/421/357
f 367/416/358 366/414/358 382/420/358
f 359/415/359 375/421/359 376/423/359
f 367/416/360 383/422/360 384/424/360
f 360/417/361 376/423/361 377/425/361
f 369/403/362 368/402/362 384/424/362
f 361/418/363 377/425/363 378/427/363
f 369/403/364 385/426/364 386/428/364
f 363/406/365 362/404/365 378/427/365
f 370/405/366 386/428/366 387/430/366
f 364/408/367 363/406/367 379/429/367
f 364/408/370 380/431/370 381/435/370
f 377/425/371 392/451/371 393/436/371
f 385/426/372 400/452/372 401/437/372
f 379/429/373 378/427/373 393/436/373
f 387/430/374 386/428/374 401/437/374
f 380/431/375 379/429/375 394/438/375
f 380/431/378 395/440/378 396/444/378
f 373/433/379 388/442/379 389/445/379
f 381/435/380 396/444/380 397/446/380
f 375/421/639 374/419/639 389/445/639
f 383/422/382 382/420/382 397/446/382
f 375/421/383 390/447/383 391/449/383
f 383/422/384 398/448/384 399/450/384
f 377/425/385 376/423/385 391/449/385
f 384/424/386 399/450/386 400/452/386
f 396/444/387 411/469/387 412/453/387
f 390/447/388 389/445/388 404/454/388
f 398/448/389 397/446/389 412/453/389
f 390/447/390 405/455/390 406/457/390
f 398/448/391 413/456/391 414/458/391
f 392/451/392 391/449/392 406/457/392
f 400/452/393 399/450/393 414/458/393
f 392/451/394 407/459/394 408/461/394
f 400/452/395 415/460/395 416/462/395
f 394/438/396 393/436/396 408/461/396
f 402/439/397 401/437/397 416/462/397
f 395/440/398 394/438/398 409/463/398
f 395/440/401 410/465/401 411/469/401
f 388/442/402 403/467/402 404/454/402
f 415/460/403 430/486/403 431/470/403
f 409/463/404 408/461/404 423/471/404
f 416/462/405 431/470/405 432/473/405
f 410/465/640 409/463/640 424/472/640
f 410/465/641 425/474/641 426/478/641
f 404/454/410 403/467/410 418/476/410
f 411/469/411 426/478/411 427/480/411
f 405/455/412 404/454/412 419/479/412
f 413/456/413 412/453/413 427/480/413
f 405/455/414 420/481/414 421/483/414
f 413/456/415 428/482/415 429/484/415
f 407/459/416 406/457/416 421/483/416
f 415/460/417 414/458/417 429/484/417
f 407/459/418 422/485/418 423/471/418
f 428/487/419 427/517/419 442/488/419
f 420/490/420 435/518/420 436/491/420
f 428/487/421 443/489/421 444/493/421
f 422/495/422 421/492/422 436/491/422
f 430/497/423 429/494/423 444/493/423
f 422/495/424 437/496/424 438/499/424
f 430/497/425 445/498/425 446/501/425
f 424/503/426 423/500/426 438/499/426
f 431/502/427 446/501/427 447/505/427
f 425/507/428 424/503/428 439/504/428
f 425/507/431 440/508/431 441/513/431
f 418/509/642 433/511/642 434/515/642
f 426/514/433 441/513/433 442/488/433
f 420/490/434 419/516/434 434/515/434
f 447/505/435 446/501/435 461/519/435
f 440/508/436 439/504/436 454/521/436
f 440/508/439 455/522/439 456/526/439
f 433/511/643 448/524/643 449/527/643
f 441/513/441 456/526/441 457/528/441
f 434/515/442 449/527/442 450/529/442
f 443/489/443 442/488/443 457/528/443
f 435/518/444 450/529/444 451/531/444
f 443/489/445 458/530/445 459/532/445
f 437/496/446 436/491/446 451/531/446
f 445/498/447 444/493/447 459/532/447
f 437/496/448 452/533/448 453/535/448
f 446/501/449 445/498/449 460/534/449
f 439/504/450 438/499/450 453/535/450
f 450/529/451 465/551/451 466/536/451
f 458/530/452 473/552/452 474/537/452
f 452/533/453 451/531/453 466/536/453
f 460/534/454 459/532/454 474/537/454
f 452/533/455 467/538/455 468/540/455
f 460/534/644 475/539/644 476/541/644
f 454/521/457 453/535/457 468/540/457
f 462/520/458 461/519/458 476/541/458
f 455/522/645 454/521/645 469/542/645
f 455/522/462 470/544/462 471/548/462
f 448/524/646 463/546/646 464/549/646
f 456/526/464 471/548/464 472/550/464
f 450/529/647 449/527/647 464/549/647
f 458/530/466 457/528/466 472/550/466
f 470/544/467 469/542/467 484/553/467
f 470/544/470 485/554/470 486/559/470
f 463/546/471 478/556/471 479/560/471
f 471/548/472 486/559/472 487/561/472
f 465/551/473 464/549/473 479/560/473
f 473/552/474 472/550/474 487/561/474
f 465/551/475 480/562/475 481/564/475
f 473/552/476 488/563/476 489/565/476
f 467/538/477 466/536/477 481/564/477
f 475/539/478 474/537/478 489/565/478
f 467/538/479 482/566/479 483/568/479
f 475/539/480 490/567/480 491/569/480
f 469/542/481 468/540/481 483/568/481
f 476/541/482 491/569/482 492/558/482
f 488/563/483 503/586/483 504/570/483
f 482/566/484 481/564/484 496/571/484
f 490/567/485 489/565/485 504/570/485
f 482/566/486 497/572/486 498/574/486
f 490/567/487 505/573/487 506/575/487
f 484/553/488 483/568/488 498/574/488
f 491/569/489 506/575/489 507/577/489
f 485/554/490 484/553/490 499/576/490
f 485/554/493 500/578/493 501/582/493
f 478/556/494 493/580/494 494/583/494
f 486/559/495 501/582/495 502/584/495
f 480/562/496 479/560/496 494/583/496
f 488/563/497 487/561/497 502/584/497
f 480/562/498 495/585/498 496/571/498
f 500/578/501 515/603/501 516/591/501
f 494/583/648 493/580/648 508/588/648
f 501/582/503 516/591/503 517/593/503
f 494/583/504 509/592/504 510/594/504
f 503/586/505 502/584/505 517/593/505
f 495/585/506 510/594/506 511/596/506
f 503/586/507 518/595/507 519/597/507
f 497/572/508 496/571/508 511/596/508
f 505/573/509 504/570/509 519/597/509
f 497/572/510 512/598/510 513/600/510
f 505/573/649 520/599/649 521/601/649
f 499/576/512 498/574/512 513/600/512
f 506/575/513 521/601/513 522/590/513
f 500/578/514 499/576/514 514/602/514
f 511/596/515 526/620/515 527/604/515
f 520/599/516 519/597/516 534/605/516
f 512/598/517 527/604/517 528/607/517
f 520/599/518 535/606/518 536/608/518
f 514/602/519 513/600/519 528/607/519
f 521/601/520 536/608/520 537/610/520
f 515/603/521 514/602/521 529/609/521
f 515/603/524 530/611/524 531/615/524
f 509/592/525 508/588/525 523/613/525
f 516/591/526 531/615/526 532/617/526
f 510/594/650 509/592/650 524/616/650
f 518/595/528 517/593/528 532/617/528
f 510/594/529 525/618/529 526/620/529
f 518/595/530 533/619/530 534/605/530
f 530/611/531 68/67/531 69/69/531
f 523/613/532 538/94/532 539/70/532
f 531/615/533 69/69/533 542/73/533
f 525/618/534 524/616/534 539/70/534
f 532/617/535 542/73/535 70/78/535
f 526/620/536 525/618/536 65/75/536
f 533/619/537 70/78/537 543/81/537
f 527/604/538 526/620/538 540/79/538
f 535/606/539 534/605/539 543/81/539
f 528/607/540 527/604/540 66/83/540
f 536/608/541 535/606/541 544/86/541
f 529/609/542 528/607/542 541/87/542
f 536/608/543 545/90/543 546/65/543
f 530/611/544 529/609/544 67/92/544
f 550/625/547 547/762/547 548/763/547
f 548/763/547 579/764/547 578/765/547
f 578/765/547 577/766/547 576/767/547
f 576/767/547 575/768/547 574/769/547
f 574/769/547 573/770/547 572/771/547
f 572/771/547 571/772/547 570/773/547
f 570/773/547 569/774/547 568/775/547
f 568/775/547 567/776/547 566/623/547
f 566/623/547 565/777/547 564/778/547
f 564/778/547 563/779/547 562/780/547
f 562/780/547 561/781/547 560/782/547
f 560/782/547 559/783/547 558/624/547
f 558/624/547 557/784/547 556/785/547
f 556/785/547 555/786/547 554/787/547
f 554/787/547 553/788/547 552/789/547
f 552/789/547 551/790/547 550/625/547
f 550/625/547 548/763/547 578/765/547
f 578/765/547 576/767/547 574/769/547
f 574/769/547 572/771/547 570/773/547
f 570/773/547 568/775/547 566/623/547
f 566/623/547 564/778/547 562/780/547
f 562/780/547 560/782/547 558/624/547
f 558/624/547 556/785/547 554/787/547
f 554/787/547 552/789/547 550/625/547
f 550/625/547 578/765/547 574/769/547
f 574/769/547 570/773/547 566/623/547
f 566/623/547 562/780/547 558/624/547
f 558/624/547 554/787/547 550/625/547
f 550/625/547 574/769/547 566/623/547
