# Blender 4.5.1 LTS
# www.blender.org
mtllib turara.mtl
o 円錐
v 0.000000 1.300000 -0.800000
v -0.156072 1.300000 -0.784628
v -0.306147 1.300000 -0.739104
v -0.444456 1.300000 -0.665176
v -0.565685 1.300000 -0.565685
v -0.665176 1.300000 -0.444456
v -0.739103 1.300000 -0.306147
v -0.784628 1.300000 -0.156072
v -0.800000 1.300000 0.000000
v -0.784628 1.300000 0.156072
v -0.739103 1.300000 0.306147
v -0.665176 1.300000 0.444456
v -0.565685 1.300000 0.565685
v -0.444456 1.300000 0.665176
v -0.306147 1.300000 0.739104
v -0.156072 1.300000 0.784628
v 0.000000 1.300000 0.800000
v 0.156072 1.300000 0.784628
v 0.306147 1.300000 0.739104
v 0.444456 1.300000 0.665176
v 0.565686 1.300000 0.565685
v 0.665176 1.300000 0.444456
v 0.739104 1.300000 0.306147
v 0.784628 1.300000 0.156072
v 0.800000 1.300000 0.000000
v 0.784628 1.300000 -0.156072
v 0.739104 1.300000 -0.306147
v 0.665176 1.300000 -0.444456
v 0.565686 1.300000 -0.565685
v 0.444456 1.300000 -0.665176
v 0.306147 1.300000 -0.739104
v 0.156072 1.300000 -0.784628
v -0.000000 -1.300000 0.000000
v 0.792314 1.300000 0.078036
v -0.282843 0.000000 0.282843
vn -0.0937 -0.2928 -0.9516
vn -0.2776 -0.2928 -0.9150
vn -0.4507 -0.2928 -0.8433
vn -0.6066 -0.2928 -0.7391
vn -0.7391 -0.2928 -0.6066
vn -0.8433 -0.2928 -0.4507
vn -0.9150 -0.2928 -0.2776
vn -0.9516 -0.2928 -0.0937
vn -0.9516 -0.2928 0.0937
vn -0.9150 -0.2928 0.2776
vn -0.8433 -0.2928 0.4507
vn -0.7391 -0.2928 0.6066
vn -0.6066 -0.2928 0.7391
vn -0.4507 -0.2928 0.8433
vn -0.2776 -0.2928 0.9150
vn -0.0937 -0.2928 0.9516
vn 0.0937 -0.2928 0.9516
vn 0.2776 -0.2928 0.9150
vn 0.4507 -0.2928 0.8433
vn 0.6066 -0.2928 0.7391
vn 0.7391 -0.2928 0.6066
vn 0.8433 -0.2928 0.4507
vn 0.9150 -0.2928 0.2776
vn -0.0000 -1.0000 -0.0000
vn 0.9516 -0.2928 -0.0937
vn 0.9150 -0.2928 -0.2776
vn 0.8433 -0.2928 -0.4507
vn 0.7391 -0.2928 -0.6066
vn 0.6066 -0.2928 -0.7391
vn 0.4507 -0.2928 -0.8433
vn -0.0000 1.0000 -0.0000
vn 0.2776 -0.2928 -0.9150
vn 0.0937 -0.2928 -0.9516
vn 0.9516 -0.2928 0.0937
vt 0.659059 0.420091
vt 0.428012 -0.000000
vt 0.689477 0.399439
vt 0.714006 0.377384
vt 0.000000 0.905417
vt 0.000000 0.428012
vt 0.036761 0.906037
vt 0.076268 0.902234
vt 0.117004 0.894154
vt 0.157401 0.882108
vt 0.195909 0.866559
vt 0.231047 0.848103
vt 0.261465 0.827451
vt 0.285994 0.805396
vt 0.714006 0.477405
vt 0.714006 -0.000000
vt 0.750767 0.478025
vt 0.752140 0.237111
vt 0.790274 0.474222
vt 0.831010 0.466142
vt 0.871407 0.454096
vt 0.909915 0.438546
vt 0.945053 0.420091
vt 0.975471 0.399439
vt 1.000000 0.377384
vt 0.428012 0.955430
vt 0.428012 0.478025
vt 0.464773 0.956050
vt 0.504281 0.952247
vt 0.545016 0.944167
vt 0.585413 0.932121
vt 0.623921 0.916571
vt 0.659059 0.898116
vt 0.641490 0.907344
vt 0.689477 0.877464
vt 0.714006 0.855409
vt 0.428012 0.477405
vt 0.464773 0.478025
vt 0.504281 0.474222
vt 0.545016 0.466142
vt 0.585413 0.454096
vt 0.365331 0.365331
vt 0.315376 0.403656
vt 0.276429 0.419788
vt 0.623921 0.438546
vt 0.077585 0.380235
vt 0.047777 0.350427
vt 0.024356 0.315376
vt 0.008224 0.276429
vt 0.000000 0.235084
vt 0.000000 0.192928
vt 0.008224 0.151583
vt 0.024356 0.112636
vt 0.047777 0.077585
vt 0.077585 0.047777
vt 0.112636 0.024356
vt 0.151583 0.008224
vt 0.192928 0.000000
vt 0.235084 0.000000
vt 0.276429 0.008224
vt 0.315376 0.024356
vt 0.350427 0.047777
vt 0.380235 0.077585
vt 0.403656 0.112636
vt 0.419788 0.151583
vt 0.428012 0.192928
vt 0.428012 0.235084
vt 0.419788 0.276429
vt 0.403656 0.315376
vt 0.380235 0.350427
vt 0.350427 0.380235
vt 0.112636 0.403656
vt 0.192928 0.428012
vt 0.151583 0.419788
vt 0.235084 0.428012
s 0
usemtl マテリアル
f 1/1/1 33/2/1 2/3/1
f 2/3/2 33/2/2 3/4/2
f 3/5/3 33/6/3 4/7/3
f 4/7/4 33/6/4 5/8/4
f 5/8/5 33/6/5 6/9/5
f 6/9/6 33/6/6 7/10/6
f 7/10/7 33/6/7 8/11/7
f 8/11/8 33/6/8 9/12/8
f 9/12/9 33/6/9 10/13/9
f 10/13/10 33/6/10 11/14/10
f 11/15/11 33/16/11 12/17/11
f 12/17/12 35/18/12 13/19/12
f 35/18/13 14/20/13 13/19/13
f 14/20/14 33/16/14 15/21/14
f 15/21/15 33/16/15 16/22/15
f 16/22/16 33/16/16 17/23/16
f 17/23/17 33/16/17 18/24/17
f 18/24/18 33/16/18 19/25/18
f 19/26/19 33/27/19 20/28/19
f 20/28/20 33/27/20 21/29/20
f 21/29/21 33/27/21 22/30/21
f 22/30/22 33/27/22 23/31/22
f 23/31/23 33/27/23 24/32/23
f 24/32/24 25/33/24 34/34/24
f 25/33/25 33/27/25 26/35/25
f 26/35/26 33/27/26 27/36/26
f 27/37/27 33/2/27 28/38/27
f 28/38/28 33/2/28 29/39/28
f 29/39/29 33/2/29 30/40/29
f 30/40/30 33/2/30 31/41/30
f 34/42/31 26/43/31 27/44/31
f 31/41/32 33/2/32 32/45/32
f 32/45/33 33/2/33 1/1/33
f 12/17/12 33/16/12 35/18/12
f 35/18/13 33/16/13 14/20/13
f 24/32/34 33/27/34 25/33/34
f 32/46/31 1/47/31 34/42/31
f 1/47/31 2/48/31 34/42/31
f 2/48/31 3/49/31 34/42/31
f 3/49/31 4/50/31 34/42/31
f 4/50/31 5/51/31 34/42/31
f 5/51/31 6/52/31 34/42/31
f 6/52/31 7/53/31 34/42/31
f 7/53/31 8/54/31 34/42/31
f 8/54/31 9/55/31 34/42/31
f 9/55/31 10/56/31 34/42/31
f 10/56/31 11/57/31 34/42/31
f 11/57/31 12/58/31 34/42/31
f 12/58/31 13/59/31 34/42/31
f 13/59/31 14/60/31 34/42/31
f 14/60/31 15/61/31 34/42/31
f 15/61/31 16/62/31 34/42/31
f 16/62/31 17/63/31 34/42/31
f 17/63/31 18/64/31 34/42/31
f 18/64/31 19/65/31 34/42/31
f 19/65/31 20/66/31 34/42/31
f 20/66/31 21/67/31 34/42/31
f 21/67/31 22/68/31 34/42/31
f 22/68/31 23/69/31 34/42/31
f 23/69/31 24/70/31 34/42/31
f 34/42/31 25/71/31 26/43/31
f 31/72/31 32/46/31 34/42/31
f 29/73/31 30/74/31 34/42/31
f 30/74/31 31/72/31 34/42/31
f 27/44/31 28/75/31 34/42/31
f 28/75/31 29/73/31 34/42/31
