# Blender 4.5.1 LTS
# www.blender.org
mtllib marker.mtl
o 円柱
v 0.000000 -0.010000 -1.500000
v 0.000000 0.010000 -1.500000
v 0.292636 -0.010000 -1.471178
v 0.292636 0.010000 -1.471178
v 0.574025 -0.010000 -1.385819
v 0.574025 0.010000 -1.385819
v 0.833355 -0.010000 -1.247204
v 0.833355 0.010000 -1.247204
v 1.060660 -0.010000 -1.060660
v 1.060660 0.010000 -1.060660
v 1.247204 -0.010000 -0.833355
v 1.247204 0.010000 -0.833355
v 1.385819 -0.010000 -0.574025
v 1.385819 0.010000 -0.574025
v 1.471178 -0.010000 -0.292636
v 1.471178 0.010000 -0.292636
v 1.500000 -0.010000 0.000000
v 1.500000 0.010000 0.000000
v 1.471178 -0.010000 0.292636
v 1.471178 0.010000 0.292636
v 1.385819 -0.010000 0.574025
v 1.385819 0.010000 0.574025
v 1.247204 -0.010000 0.833355
v 1.247204 0.010000 0.833355
v 1.060660 -0.010000 1.060660
v 1.060660 0.010000 1.060660
v 0.833355 -0.010000 1.247204
v 0.833355 0.010000 1.247204
v 0.574025 -0.010000 1.385819
v 0.574025 0.010000 1.385819
v 0.292636 -0.010000 1.471178
v 0.292636 0.010000 1.471178
v 0.000000 -0.010000 1.500000
v 0.000000 0.010000 1.500000
v -0.292636 -0.010000 1.471178
v -0.292636 0.010000 1.471178
v -0.574025 -0.010000 1.385819
v -0.574025 0.010000 1.385819
v -0.833355 -0.010000 1.247204
v -0.833355 0.010000 1.247204
v -1.060660 -0.010000 1.060660
v -1.060660 0.010000 1.060660
v -1.247204 -0.010000 0.833355
v -1.247204 0.010000 0.833355
v -1.385819 -0.010000 0.574025
v -1.385819 0.010000 0.574025
v -1.471178 -0.010000 0.292636
v -1.471178 0.010000 0.292636
v -1.500000 -0.010000 0.000000
v -1.500000 0.010000 0.000000
v -1.471178 -0.010000 -0.292636
v -1.471178 0.010000 -0.292636
v -1.385819 -0.010000 -0.574025
v -1.385819 0.010000 -0.574025
v -1.247204 -0.010000 -0.833355
v -1.247204 0.010000 -0.833355
v -1.060660 -0.010000 -1.060660
v -1.060660 0.010000 -1.060660
v -0.833355 -0.010000 -1.247204
v -0.833355 0.010000 -1.247204
v -0.574025 -0.010000 -1.385819
v -0.574025 0.010000 -1.385819
v -0.292636 -0.010000 -1.471178
v -0.292636 0.010000 -1.471178
vn 0.0980 -0.0000 -0.9952
vn 0.2903 -0.0000 -0.9569
vn 0.4714 -0.0000 -0.8819
vn 0.6344 -0.0000 -0.7730
vn 0.7730 -0.0000 -0.6344
vn 0.8819 -0.0000 -0.4714
vn 0.9569 -0.0000 -0.2903
vn 0.9952 -0.0000 -0.0980
vn 0.9952 -0.0000 0.0980
vn 0.9569 -0.0000 0.2903
vn 0.8819 -0.0000 0.4714
vn 0.7730 -0.0000 0.6344
vn 0.6344 -0.0000 0.7730
vn 0.4714 -0.0000 0.8819
vn 0.2903 -0.0000 0.9569
vn 0.0980 -0.0000 0.9952
vn -0.0980 -0.0000 0.9952
vn -0.2903 -0.0000 0.9569
vn -0.4714 -0.0000 0.8819
vn -0.6344 -0.0000 0.7730
vn -0.7730 -0.0000 0.6344
vn -0.8819 -0.0000 0.4714
vn -0.9569 -0.0000 0.2903
vn -0.9952 -0.0000 0.0980
vn -0.9952 -0.0000 -0.0980
vn -0.9569 -0.0000 -0.2903
vn -0.8819 -0.0000 -0.4714
vn -0.7730 -0.0000 -0.6344
vn -0.6344 -0.0000 -0.7730
vn -0.4714 -0.0000 -0.8819
vn -0.0000 1.0000 -0.0000
vn -0.2903 -0.0000 -0.9569
vn -0.0980 -0.0000 -0.9952
vn -0.0000 -1.0000 -0.0000
vt 0.690824 0.010890
vt 0.718719 0.413359
vt 0.690824 0.413359
vt 0.407606 0.435140
vt 0.435170 0.832838
vt 0.407606 0.832838
vt 0.435170 0.435140
vt 0.467582 0.832838
vt 0.467582 0.435140
vt 0.503596 0.832838
vt 0.503596 0.435140
vt 0.541828 0.832838
vt 0.541828 0.435140
vt 0.580810 0.832838
vt 0.580810 0.435140
vt 0.619042 0.832838
vt 0.619042 0.435140
vt 0.655056 0.832838
vt 0.655056 0.435140
vt 0.687468 0.832838
vt 0.740500 0.010890
vt 0.772431 0.402698
vt 0.740500 0.402698
vt 0.772431 0.010890
vt 0.807912 0.402698
vt 0.807912 0.010890
vt 0.845578 0.402698
vt 0.845578 0.010890
vt 0.883982 0.402698
vt 0.883982 0.010890
vt 0.921648 0.402698
vt 0.921648 0.010890
vt 0.957128 0.402698
vt 0.957128 0.010890
vt 0.989060 0.402698
vt 0.709248 0.435140
vt 0.741660 0.832838
vt 0.709248 0.832838
vt 0.741660 0.435140
vt 0.777674 0.832838
vt 0.777674 0.435140
vt 0.815906 0.832838
vt 0.815906 0.435140
vt 0.854888 0.832838
vt 0.854888 0.435140
vt 0.893120 0.832838
vt 0.893120 0.435140
vt 0.929134 0.832838
vt 0.929134 0.435140
vt 0.961546 0.832838
vt 0.961546 0.435140
vt 0.989110 0.832838
vt 0.407606 0.010890
vt 0.435501 0.413359
vt 0.407606 0.413359
vt 0.435501 0.010890
vt 0.468301 0.413359
vt 0.468301 0.010890
vt 0.504747 0.413359
vt 0.504747 0.010890
vt 0.543438 0.413359
vt 0.543438 0.010890
vt 0.582887 0.413359
vt 0.582887 0.010890
vt 0.621578 0.413359
vt 0.287157 0.032226
vt 0.364489 0.287157
vt 0.109559 0.364489
vt 0.621578 0.010890
vt 0.658024 0.413359
vt 0.658024 0.010890
vt 0.317861 0.449458
vt 0.343973 0.714577
vt 0.078854 0.740689
vt 0.718719 0.010890
vt 0.687468 0.435140
vt 0.989060 0.010890
vt 0.989110 0.435140
vt 0.078854 0.343973
vt 0.052742 0.317861
vt 0.032226 0.287157
vt 0.018095 0.253040
vt 0.010891 0.216822
vt 0.010891 0.179894
vt 0.018095 0.143676
vt 0.032226 0.109559
vt 0.052742 0.078854
vt 0.078854 0.052742
vt 0.109559 0.032226
vt 0.143676 0.018095
vt 0.179894 0.010890
vt 0.216822 0.010890
vt 0.253040 0.018095
vt 0.317861 0.052742
vt 0.378621 0.143676
vt 0.343973 0.078854
vt 0.364489 0.109559
vt 0.385825 0.179894
vt 0.385825 0.216822
vt 0.378621 0.253040
vt 0.343973 0.317861
vt 0.253040 0.378621
vt 0.317862 0.343973
vt 0.287157 0.364489
vt 0.216822 0.385825
vt 0.179894 0.385825
vt 0.143676 0.378621
vt 0.052742 0.714577
vt 0.032226 0.683873
vt 0.018095 0.649756
vt 0.010890 0.613538
vt 0.010890 0.576610
vt 0.018095 0.540392
vt 0.032226 0.506275
vt 0.052742 0.475570
vt 0.078854 0.449458
vt 0.109559 0.428942
vt 0.143676 0.414811
vt 0.179894 0.407606
vt 0.216822 0.407606
vt 0.253040 0.414811
vt 0.287157 0.428942
vt 0.343973 0.475570
vt 0.364489 0.506275
vt 0.378621 0.540392
vt 0.385825 0.576610
vt 0.385825 0.613538
vt 0.378621 0.649756
vt 0.364489 0.683873
vt 0.317861 0.740689
vt 0.287157 0.761205
vt 0.253040 0.775337
vt 0.216822 0.782541
vt 0.179894 0.782541
vt 0.143676 0.775337
vt 0.109559 0.761205
s 0
usemtl マテリアル
f 2/1/1 3/2/1 1/3/1
f 4/4/2 5/5/2 3/6/2
f 6/7/3 7/8/3 5/5/3
f 8/9/4 9/10/4 7/8/4
f 10/11/5 11/12/5 9/10/5
f 12/13/6 13/14/6 11/12/6
f 14/15/7 15/16/7 13/14/7
f 16/17/8 17/18/8 15/16/8
f 18/19/9 19/20/9 17/18/9
f 20/21/10 21/22/10 19/23/10
f 22/24/11 23/25/11 21/22/11
f 24/26/12 25/27/12 23/25/12
f 26/28/13 27/29/13 25/27/13
f 28/30/14 29/31/14 27/29/14
f 30/32/15 31/33/15 29/31/15
f 32/34/16 33/35/16 31/33/16
f 34/36/17 35/37/17 33/38/17
f 36/39/18 37/40/18 35/37/18
f 38/41/19 39/42/19 37/40/19
f 40/43/20 41/44/20 39/42/20
f 42/45/21 43/46/21 41/44/21
f 44/47/22 45/48/22 43/46/22
f 46/49/23 47/50/23 45/48/23
f 48/51/24 49/52/24 47/50/24
f 50/53/25 51/54/25 49/55/25
f 52/56/26 53/57/26 51/54/26
f 54/58/27 55/59/27 53/57/27
f 56/60/28 57/61/28 55/59/28
f 58/62/29 59/63/29 57/61/29
f 60/64/30 61/65/30 59/63/30
f 38/66/31 22/67/31 6/68/31
f 62/69/32 63/70/32 61/65/32
f 64/71/33 1/3/33 63/70/33
f 31/72/34 47/73/34 63/74/34
f 2/1/1 4/75/1 3/2/1
f 4/4/2 6/7/2 5/5/2
f 6/7/3 8/9/3 7/8/3
f 8/9/4 10/11/4 9/10/4
f 10/11/5 12/13/5 11/12/5
f 12/13/6 14/15/6 13/14/6
f 14/15/7 16/17/7 15/16/7
f 16/17/8 18/19/8 17/18/8
f 18/19/9 20/76/9 19/20/9
f 20/21/10 22/24/10 21/22/10
f 22/24/11 24/26/11 23/25/11
f 24/26/12 26/28/12 25/27/12
f 26/28/13 28/30/13 27/29/13
f 28/30/14 30/32/14 29/31/14
f 30/32/15 32/34/15 31/33/15
f 32/34/16 34/77/16 33/35/16
f 34/36/17 36/39/17 35/37/17
f 36/39/18 38/41/18 37/40/18
f 38/41/19 40/43/19 39/42/19
f 40/43/20 42/45/20 41/44/20
f 42/45/21 44/47/21 43/46/21
f 44/47/22 46/49/22 45/48/22
f 46/49/23 48/51/23 47/50/23
f 48/51/24 50/78/24 49/52/24
f 50/53/25 52/56/25 51/54/25
f 52/56/26 54/58/26 53/57/26
f 54/58/27 56/60/27 55/59/27
f 56/60/28 58/62/28 57/61/28
f 58/62/29 60/64/29 59/63/29
f 60/64/30 62/69/30 61/65/30
f 6/68/31 4/79/31 2/80/31
f 2/80/31 64/81/31 6/68/31
f 64/81/31 62/82/31 6/68/31
f 62/82/31 60/83/31 58/84/31
f 58/84/31 56/85/31 54/86/31
f 54/86/31 52/87/31 50/88/31
f 50/88/31 48/89/31 54/86/31
f 48/89/31 46/90/31 54/86/31
f 46/90/31 44/91/31 42/92/31
f 42/92/31 40/93/31 38/66/31
f 38/66/31 36/94/31 30/95/31
f 36/94/31 34/96/31 30/95/31
f 34/96/31 32/97/31 30/95/31
f 30/95/31 28/98/31 26/99/31
f 26/99/31 24/100/31 22/67/31
f 22/67/31 20/101/31 14/102/31
f 20/101/31 18/103/31 14/102/31
f 18/103/31 16/104/31 14/102/31
f 14/102/31 12/105/31 10/106/31
f 10/106/31 8/107/31 6/68/31
f 62/82/31 58/84/31 6/68/31
f 58/84/31 54/86/31 6/68/31
f 46/90/31 42/92/31 54/86/31
f 42/92/31 38/66/31 54/86/31
f 30/95/31 26/99/31 38/66/31
f 26/99/31 22/67/31 38/66/31
f 14/102/31 10/106/31 22/67/31
f 10/106/31 6/68/31 22/67/31
f 6/68/31 54/86/31 38/66/31
f 62/69/32 64/71/32 63/70/32
f 64/71/33 2/1/33 1/3/33
f 63/74/34 1/108/34 3/109/34
f 3/109/34 5/110/34 7/111/34
f 7/111/34 9/112/34 11/113/34
f 11/113/34 13/114/34 15/115/34
f 15/115/34 17/116/34 19/117/34
f 19/117/34 21/118/34 23/119/34
f 23/119/34 25/120/34 27/121/34
f 27/121/34 29/122/34 31/72/34
f 31/72/34 33/123/34 35/124/34
f 35/124/34 37/125/34 39/126/34
f 39/126/34 41/127/34 43/128/34
f 43/128/34 45/129/34 47/73/34
f 47/73/34 49/130/34 51/131/34
f 51/131/34 53/132/34 55/133/34
f 55/133/34 57/134/34 59/135/34
f 59/135/34 61/136/34 63/74/34
f 63/74/34 3/109/34 15/115/34
f 3/109/34 7/111/34 15/115/34
f 7/111/34 11/113/34 15/115/34
f 15/115/34 19/117/34 31/72/34
f 19/117/34 23/119/34 31/72/34
f 23/119/34 27/121/34 31/72/34
f 31/72/34 35/124/34 47/73/34
f 35/124/34 39/126/34 47/73/34
f 39/126/34 43/128/34 47/73/34
f 47/73/34 51/131/34 63/74/34
f 51/131/34 55/133/34 63/74/34
f 55/133/34 59/135/34 63/74/34
f 63/74/34 15/115/34 31/72/34
